G04 PROTEUS GERBER X2 FILE*
%TF.GenerationSoftware,Labcenter,Proteus,8.12-SP2-Build31155*%
%TF.CreationDate,2024-11-30T19:26:21+00:00*%
%TF.FileFunction,Copper,L1,Top*%
%TF.FilePolarity,Positive*%
%TF.Part,Single*%
%TF.SameCoordinates,{e6e8286e-83a0-46e7-8d5c-4e76f455a4ca}*%
%FSLAX45Y45*%
%MOMM*%
G01*
%TA.AperFunction,Conductor*%
%ADD10C,0.381000*%
%ADD11C,0.304800*%
%ADD12C,0.203200*%
%ADD13C,0.152400*%
%TA.AperFunction,ViaPad*%
%ADD14C,1.016000*%
%ADD15C,0.508000*%
%TA.AperFunction,ComponentPad*%
%ADD16R,1.270000X1.270000*%
%ADD17C,1.524000*%
%TA.AperFunction,ComponentPad*%
%ADD18R,2.032000X2.032000*%
%TA.AperFunction,ComponentPad*%
%ADD19C,2.032000*%
%TA.AperFunction,SMDPad,CuDef*%
%ADD70R,1.270000X3.048000*%
%TA.AperFunction,SMDPad,CuDef*%
%ADD71R,0.635000X2.032000*%
%TA.AperFunction,SMDPad,CuDef*%
%ADD20R,2.032000X0.635000*%
%TA.AperFunction,SMDPad,CuDef*%
%ADD21R,0.609600X0.609600*%
%TA.AperFunction,Profile*%
%ADD22C,0.203200*%
%TD.AperFunction*%
D10*
X+1170000Y+2974000D02*
X+1755356Y+2974000D01*
X+1821856Y+3040500D01*
X+1889650Y+3040500D01*
X+1170000Y+2720000D02*
X+1770000Y+2720000D01*
X+1830500Y+2659500D01*
X+1889650Y+2659500D01*
X+3664000Y+1425000D02*
X+3664000Y+1793500D01*
X+3600500Y+1857000D01*
X+2738000Y+1857000D01*
X+2674500Y+1920500D01*
X+2674500Y+2682500D01*
X+4915500Y+1920350D02*
X+4420150Y+1425000D01*
X+3944500Y+1425000D01*
X+3881000Y+1425000D02*
X+3944500Y+1425000D01*
X+3817500Y+1425000D02*
X+3881000Y+1425000D01*
X+3664000Y+1425000D02*
X+3817500Y+1425000D01*
X+3664000Y+1425000D02*
X+3664000Y+1344000D01*
X+3460000Y+1140000D01*
X+2581500Y+862800D02*
X+3246000Y+862800D01*
X+2581500Y+862800D02*
X+2581500Y+926589D01*
X+5810000Y+1004000D02*
X+5704000Y+1004000D01*
X+5072428Y+372431D01*
D11*
X+5061568Y+361571D01*
D10*
X+4940000Y+240000D02*
X+5061568Y+361571D01*
X+4056000Y+780000D02*
X+3973200Y+862800D01*
X+3246000Y+862800D01*
X+4056000Y+780000D02*
X+4056000Y+698442D01*
X+4229076Y+525366D01*
X+1889650Y+2786500D02*
X+1889650Y+2913500D01*
D12*
X+1434000Y+260000D02*
X+1434000Y+460000D01*
X+1438500Y+464500D01*
X+1438500Y+862800D01*
X+1942000Y+260000D02*
X+1692500Y+509500D01*
X+1692500Y+862800D01*
X+2196000Y+260000D02*
X+1819501Y+636499D01*
X+1819500Y+862800D01*
X+1819501Y+862800D01*
D10*
X+2581500Y+1777200D02*
X+2581500Y+1713324D01*
X+2501310Y+1633134D01*
X+2454500Y+1633134D01*
X+2442890Y+1633134D02*
X+2454500Y+1633134D01*
X+2410350Y+2659500D02*
X+2581500Y+2488350D01*
X+2581500Y+2428500D01*
X+6737000Y+2594000D02*
X+6623000Y+2480000D01*
X+5814000Y+2480000D01*
X+5684000Y+2350000D01*
X+1438500Y+1777200D02*
X+1438500Y+1708167D01*
X+1513533Y+1633134D01*
X+2442890Y+1633134D01*
X+2581500Y+1777200D02*
X+2581500Y+2428500D01*
X+3370000Y+1140000D02*
X+3370000Y+1116101D01*
X+3416101Y+1070000D01*
X+4020000Y+1070000D01*
X+4310000Y+780000D02*
X+4020000Y+1070000D01*
X+641000Y+2336000D02*
X+897000Y+2080000D01*
X+1130000Y+2080000D01*
X+1438500Y+1777200D02*
X+1135700Y+2080000D01*
X+1130000Y+2080000D01*
X+3156000Y+1425000D02*
X+3156000Y+1354000D01*
X+3370000Y+1140000D01*
X+3892000Y+2250000D02*
X+4466500Y+2824500D01*
X+4466500Y+3107200D01*
X+2410350Y+2659500D02*
X+2349490Y+2659500D01*
X+2272020Y+2736970D01*
X+2272020Y+2960480D01*
X+2352040Y+3040500D01*
X+2247529Y+3040734D02*
X+2247763Y+3040500D01*
X+2352040Y+3040500D01*
X+2410350Y+3040500D01*
D12*
X+6737000Y+3356000D02*
X+6587111Y+3206111D01*
X+6032111Y+3206111D01*
X+5176000Y+2350000D01*
X+1404500Y+1984000D02*
X+1565500Y+1984000D01*
X+1565500Y+1777200D01*
X+6167000Y+3317500D02*
X+2738000Y+3317500D01*
X+2674500Y+3254000D01*
X+2674500Y+2873000D01*
X+2588000Y+2786500D01*
X+2410350Y+2786500D01*
X+6737000Y+2086000D02*
X+6735999Y+2086000D01*
X+6631909Y+1981910D01*
X+6308090Y+1981910D01*
X+6230000Y+2060000D01*
X+3410000Y+2060000D01*
X+3881000Y+1793500D02*
X+4096725Y+2009225D01*
X+5468500Y+2009225D01*
X+5645725Y+1832000D01*
X+6356000Y+1832000D01*
X+260000Y+304000D02*
X+452000Y+496000D01*
X+452000Y+2365000D01*
X+553810Y+2466810D01*
X+1976000Y+2466810D01*
X+2073499Y+2369311D01*
X+2073500Y+1777200D01*
X+2073499Y+1777200D01*
X+2200499Y+1777200D02*
X+2200500Y+1777200D01*
D10*
X+260000Y+2590000D02*
X+641000Y+2590000D01*
X+3156000Y+1425000D02*
X+2880500Y+1700500D01*
X+2803800Y+1777200D01*
X+2581500Y+1777200D01*
D12*
X+6356000Y+1324000D02*
X+3782197Y+1324000D01*
X+3770597Y+1335600D01*
X+5810000Y+496000D02*
X+6124680Y+496000D01*
X+6331710Y+703030D01*
X+6403030Y+703030D01*
X+6663159Y+963159D01*
X+6779986Y+963159D01*
X+6844322Y+1027495D01*
X+6844322Y+2994678D01*
X+6737000Y+3102000D01*
X+5647570Y+1636007D02*
X+6043993Y+1636007D01*
X+6050000Y+1630000D01*
X+5990000Y+1400000D02*
X+5042850Y+1400000D01*
X+5042500Y+1399650D01*
X+6356000Y+1578000D02*
X+6356000Y+1574000D01*
X+6470000Y+1460000D01*
X+6470000Y+1260000D01*
X+6397594Y+1187594D01*
X+3638281Y+1187594D01*
X+3637907Y+1187968D01*
X+260000Y+2844000D02*
X+260000Y+2838500D01*
X+387000Y+2711500D01*
X+735000Y+2711500D01*
X+896500Y+2550000D01*
X+1770000Y+2550000D01*
X+6737000Y+3610000D02*
X+6737000Y+3587000D01*
X+6462517Y+3312517D01*
X+6460000Y+3312517D01*
X+6394212Y+3246729D01*
X+5857956Y+3246729D01*
X+5046308Y+2435081D01*
X+5046654Y+2434814D01*
X+1946500Y+862800D02*
X+1946500Y+697221D01*
X+2213721Y+430000D01*
X+2280000Y+430000D01*
X+2450000Y+260000D01*
X+2410350Y+2913500D02*
X+2543501Y+2913500D01*
X+2620000Y+2989999D01*
X+2620000Y+3270000D01*
X+2730000Y+3380000D01*
X+4960000Y+3380000D01*
X+6340000Y+4760000D01*
X+6348303Y+4760000D01*
D13*
X+6383697Y+4760000D01*
D12*
X+6620001Y+4760000D01*
X+6737000Y+4876999D01*
X+6737000Y+4880000D01*
X+1565500Y+862800D02*
X+1565500Y+484500D01*
X+1690325Y+359675D01*
X+1690325Y+262325D01*
X+1688000Y+260000D01*
X+2704000Y+260000D02*
X+2464000Y+500000D01*
X+2300000Y+500000D01*
X+2073500Y+726500D01*
X+2073500Y+862800D01*
X+2200500Y+862800D02*
X+2200500Y+739500D01*
X+2340000Y+600000D01*
X+2618000Y+600000D01*
X+2958000Y+260000D01*
X+2327500Y+862800D02*
X+2327500Y+742500D01*
X+2360000Y+710000D01*
X+2762000Y+710000D01*
X+3212000Y+260000D01*
D14*
X+2674500Y+2682500D03*
X+4915500Y+1920350D03*
X+4229076Y+525366D03*
X+4020000Y+1070000D03*
X+2454500Y+862800D03*
X+3892000Y+2250000D03*
X+2247529Y+3040734D03*
D15*
X+1404500Y+1984000D03*
X+6167000Y+3317500D03*
X+3881000Y+1793500D03*
X+1692500Y+1777200D03*
X+1819500Y+1777200D03*
X+1946500Y+1777200D03*
X+2454500Y+1777200D03*
X+2327500Y+1777200D03*
X+2200499Y+1777200D03*
D14*
X+1889650Y+2786500D03*
X+2880500Y+1700500D03*
D15*
X+3770597Y+1335600D03*
X+5647570Y+1636007D03*
X+6050000Y+1630000D03*
X+5990000Y+1400000D03*
X+5042500Y+1399650D03*
X+3637907Y+1187968D03*
X+1770000Y+2550000D03*
X+5046654Y+2434814D03*
D16*
X+260000Y+4876000D03*
D17*
X+641000Y+4876000D03*
X+260000Y+4622000D03*
X+641000Y+4622000D03*
X+260000Y+4368000D03*
X+641000Y+4368000D03*
X+260000Y+4114000D03*
X+641000Y+4114000D03*
X+260000Y+3860000D03*
X+641000Y+3860000D03*
X+260000Y+3606000D03*
X+641000Y+3606000D03*
X+260000Y+3352000D03*
X+641000Y+3352000D03*
X+260000Y+3098000D03*
X+641000Y+3098000D03*
X+260000Y+2844000D03*
X+641000Y+2844000D03*
X+260000Y+2590000D03*
X+641000Y+2590000D03*
X+260000Y+2336000D03*
X+641000Y+2336000D03*
X+260000Y+2082000D03*
X+641000Y+2082000D03*
X+260000Y+1828000D03*
X+641000Y+1828000D03*
X+260000Y+1574000D03*
X+641000Y+1574000D03*
X+260000Y+1320000D03*
X+641000Y+1320000D03*
X+260000Y+1066000D03*
X+641000Y+1066000D03*
X+260000Y+812000D03*
X+641000Y+812000D03*
X+260000Y+558000D03*
X+641000Y+558000D03*
X+260000Y+304000D03*
X+641000Y+304000D03*
D16*
X+6356000Y+4880000D03*
D17*
X+6737000Y+4880000D03*
X+6356000Y+4626000D03*
X+6737000Y+4626000D03*
X+6356000Y+4372000D03*
X+6737000Y+4372000D03*
X+6356000Y+4118000D03*
X+6737000Y+4118000D03*
X+6356000Y+3864000D03*
X+6737000Y+3864000D03*
X+6356000Y+3610000D03*
X+6737000Y+3610000D03*
X+6356000Y+3356000D03*
X+6737000Y+3356000D03*
X+6356000Y+3102000D03*
X+6737000Y+3102000D03*
X+6356000Y+2848000D03*
X+6737000Y+2848000D03*
X+6356000Y+2594000D03*
X+6737000Y+2594000D03*
X+6356000Y+2340000D03*
X+6737000Y+2340000D03*
X+6356000Y+2086000D03*
X+6737000Y+2086000D03*
X+6356000Y+1832000D03*
X+6737000Y+1832000D03*
X+6356000Y+1578000D03*
X+6737000Y+1578000D03*
X+6356000Y+1324000D03*
X+6737000Y+1324000D03*
X+6356000Y+1070000D03*
X+6737000Y+1070000D03*
X+6356000Y+816000D03*
X+6737000Y+816000D03*
X+6356000Y+562000D03*
X+6737000Y+562000D03*
X+6356000Y+308000D03*
X+6737000Y+308000D03*
D18*
X+3720000Y+260000D03*
X+3466000Y+260000D03*
X+3212000Y+260000D03*
X+2958000Y+260000D03*
X+2704000Y+260000D03*
X+2450000Y+260000D03*
X+2196000Y+260000D03*
X+1942000Y+260000D03*
X+1688000Y+260000D03*
X+1434000Y+260000D03*
D19*
X+1610000Y+4700000D03*
X+1356000Y+4700000D03*
X+2869500Y+2802800D03*
X+3123500Y+2802800D03*
X+3377500Y+2802800D03*
X+1170000Y+2974000D03*
X+1170000Y+2720000D03*
D18*
X+4720500Y+3107200D03*
X+4466500Y+3107200D03*
X+4212500Y+3107200D03*
X+3958500Y+3107200D03*
D19*
X+5176000Y+2350000D03*
X+5430000Y+2350000D03*
X+5684000Y+2350000D03*
D18*
X+5810000Y+242000D03*
X+5810000Y+496000D03*
X+5810000Y+750000D03*
X+5810000Y+1004000D03*
D19*
X+4056000Y+780000D03*
X+4310000Y+780000D03*
D18*
X+4940000Y+240000D03*
X+4940000Y+494000D03*
X+4940000Y+748000D03*
X+4940000Y+1002000D03*
D19*
X+5610000Y+4700000D03*
X+5356000Y+4700000D03*
D70*
X+3156000Y+1425000D03*
X+3664000Y+1425000D03*
X+3410000Y+2060000D03*
D71*
X+2581500Y+1777200D03*
X+2454500Y+1777200D03*
X+2327500Y+1777200D03*
X+2200500Y+1777200D03*
X+2073500Y+1777200D03*
X+1946500Y+1777200D03*
X+1819500Y+1777200D03*
X+1692500Y+1777200D03*
X+1565500Y+1777200D03*
X+1438500Y+1777200D03*
X+1438500Y+862800D03*
X+1565500Y+862800D03*
X+1692500Y+862800D03*
X+1819500Y+862800D03*
X+1946500Y+862800D03*
X+2073500Y+862800D03*
X+2200500Y+862800D03*
X+2327500Y+862800D03*
X+2454500Y+862800D03*
X+2581500Y+862800D03*
D20*
X+1889650Y+3040500D03*
X+1889650Y+2913500D03*
X+1889650Y+2786500D03*
X+1889650Y+2659500D03*
X+2410350Y+2659500D03*
X+2410350Y+2786500D03*
X+2410350Y+2913500D03*
X+2410350Y+3040500D03*
D21*
X+3460000Y+1140000D03*
X+3370000Y+1140000D03*
D19*
X+5340000Y+880000D03*
X+5340000Y+430000D03*
X+5470000Y+3050000D03*
X+1130000Y+2080000D03*
D22*
X+0Y+0D02*
X+1650000Y+0D01*
X+7000000Y+0D02*
X+7000000Y+6000000D01*
X+5000000Y+6000000D01*
X+5000000Y+3700000D01*
X+4800000Y+3500000D01*
X+2200000Y+3500000D01*
X+2000000Y+3700000D02*
X+2000000Y+6000000D01*
X+0Y+6000000D01*
X+0Y+0D01*
X+2000000Y+3700000D02*
X+2200000Y+3500000D01*
X+5160000Y+0D02*
X+7000000Y+0D01*
X+1750000Y-200000D02*
X+5050000Y-200000D01*
X+1650000Y+0D02*
X+1750000Y-200000D01*
X+5160000Y+0D02*
X+5050000Y-200000D01*
X+4550045Y+50000D02*
X+4549508Y+63142D01*
X+4545144Y+89427D01*
X+4536029Y+115712D01*
X+4521182Y+141997D01*
X+4498470Y+168118D01*
X+4472185Y+187898D01*
X+4445900Y+200658D01*
X+4419615Y+208108D01*
X+4393330Y+210987D01*
X+4389000Y+211045D01*
X+4227955Y+50000D02*
X+4228492Y+63142D01*
X+4232856Y+89427D01*
X+4241971Y+115712D01*
X+4256818Y+141997D01*
X+4279530Y+168118D01*
X+4305815Y+187898D01*
X+4332100Y+200658D01*
X+4358385Y+208108D01*
X+4384670Y+210987D01*
X+4389000Y+211045D01*
X+4227955Y+50000D02*
X+4228492Y+36858D01*
X+4232856Y+10573D01*
X+4241971Y-15712D01*
X+4256818Y-41997D01*
X+4279530Y-68118D01*
X+4305815Y-87898D01*
X+4332100Y-100658D01*
X+4358385Y-108108D01*
X+4384670Y-110987D01*
X+4389000Y-111045D01*
X+4550045Y+50000D02*
X+4549508Y+36858D01*
X+4545144Y+10573D01*
X+4536029Y-15712D01*
X+4521182Y-41997D01*
X+4498470Y-68118D01*
X+4472185Y-87898D01*
X+4445900Y-100658D01*
X+4419615Y-108108D01*
X+4393330Y-110987D01*
X+4389000Y-111045D01*
X+6074045Y+5130000D02*
X+6073508Y+5143142D01*
X+6069144Y+5169427D01*
X+6060029Y+5195712D01*
X+6045182Y+5221997D01*
X+6022470Y+5248118D01*
X+5996185Y+5267898D01*
X+5969900Y+5280658D01*
X+5943615Y+5288108D01*
X+5917330Y+5290987D01*
X+5913000Y+5291045D01*
X+5751955Y+5130000D02*
X+5752492Y+5143142D01*
X+5756856Y+5169427D01*
X+5765971Y+5195712D01*
X+5780818Y+5221997D01*
X+5803530Y+5248118D01*
X+5829815Y+5267898D01*
X+5856100Y+5280658D01*
X+5882385Y+5288108D01*
X+5908670Y+5290987D01*
X+5913000Y+5291045D01*
X+5751955Y+5130000D02*
X+5752492Y+5116858D01*
X+5756856Y+5090573D01*
X+5765971Y+5064288D01*
X+5780818Y+5038003D01*
X+5803530Y+5011882D01*
X+5829815Y+4992102D01*
X+5856100Y+4979342D01*
X+5882385Y+4971892D01*
X+5908670Y+4969013D01*
X+5913000Y+4968955D01*
X+6074045Y+5130000D02*
X+6073508Y+5116858D01*
X+6069144Y+5090573D01*
X+6060029Y+5064288D01*
X+6045182Y+5038003D01*
X+6022470Y+5011882D01*
X+5996185Y+4992102D01*
X+5969900Y+4979342D01*
X+5943615Y+4971892D01*
X+5917330Y+4969013D01*
X+5913000Y+4968955D01*
X+1248045Y+5257000D02*
X+1247508Y+5270142D01*
X+1243144Y+5296427D01*
X+1234029Y+5322712D01*
X+1219182Y+5348997D01*
X+1196470Y+5375118D01*
X+1170185Y+5394898D01*
X+1143900Y+5407658D01*
X+1117615Y+5415108D01*
X+1091330Y+5417987D01*
X+1087000Y+5418045D01*
X+925955Y+5257000D02*
X+926492Y+5270142D01*
X+930856Y+5296427D01*
X+939971Y+5322712D01*
X+954818Y+5348997D01*
X+977530Y+5375118D01*
X+1003815Y+5394898D01*
X+1030100Y+5407658D01*
X+1056385Y+5415108D01*
X+1082670Y+5417987D01*
X+1087000Y+5418045D01*
X+925955Y+5257000D02*
X+926492Y+5243858D01*
X+930856Y+5217573D01*
X+939971Y+5191288D01*
X+954818Y+5165003D01*
X+977530Y+5138882D01*
X+1003815Y+5119102D01*
X+1030100Y+5106342D01*
X+1056385Y+5098892D01*
X+1082670Y+5096013D01*
X+1087000Y+5095955D01*
X+1248045Y+5257000D02*
X+1247508Y+5243858D01*
X+1243144Y+5217573D01*
X+1234029Y+5191288D01*
X+1219182Y+5165003D01*
X+1196470Y+5138882D01*
X+1170185Y+5119102D01*
X+1143900Y+5106342D01*
X+1117615Y+5098892D01*
X+1091330Y+5096013D01*
X+1087000Y+5095955D01*
M02*
