G04 PROTEUS GERBER X2 FILE*
%TF.GenerationSoftware,Labcenter,Proteus,8.12-SP2-Build31155*%
%TF.CreationDate,2024-11-30T19:26:21+00:00*%
%TF.FileFunction,Copper,L2,Bot*%
%TF.FilePolarity,Positive*%
%TF.Part,Single*%
%TF.SameCoordinates,{e6e8286e-83a0-46e7-8d5c-4e76f455a4ca}*%
%FSLAX45Y45*%
%MOMM*%
G01*
%TA.AperFunction,Conductor*%
%ADD12C,0.203200*%
%ADD10C,0.381000*%
%ADD13C,0.152400*%
%ADD11C,0.304800*%
%TA.AperFunction,ViaPad*%
%ADD14C,1.016000*%
%ADD15C,0.508000*%
%TA.AperFunction,ComponentPad*%
%ADD17C,1.524000*%
%TA.AperFunction,ComponentPad*%
%ADD18R,2.032000X2.032000*%
%TA.AperFunction,ComponentPad*%
%ADD19C,2.032000*%
%TA.AperFunction,SMDPad,CuDef*%
%ADD71R,0.635000X2.032000*%
%TA.AperFunction,SMDPad,CuDef*%
%ADD23R,0.609600X0.558800*%
%ADD21R,0.609600X0.609600*%
%ADD24R,0.558800X0.609600*%
%TA.AperFunction,Profile*%
%ADD22C,0.203200*%
%TD.AperFunction*%
D12*
X+3511000Y+2250000D02*
X+3511000Y+2331000D01*
X+3960000Y+2780000D01*
X+3638000Y+2250000D02*
X+3638000Y+2298000D01*
X+4130000Y+2790000D01*
X+4210000Y+2790000D01*
D10*
X+3003000Y+1335600D02*
X+3003000Y+993000D01*
X+2920000Y+910000D01*
X+3257000Y+1335600D02*
X+3384000Y+1335600D01*
X+3257000Y+1335600D02*
X+3130000Y+1335600D01*
X+3003000Y+1335600D01*
D12*
X+3765000Y+2250000D02*
X+3765000Y+2315000D01*
X+4010000Y+2560000D01*
X+4500000Y+2560000D01*
X+4720000Y+2780000D01*
D10*
X+833000Y+3127000D02*
X+1404500Y+3127000D01*
X+1849000Y+2682500D01*
X+2674500Y+2682500D01*
X+990000Y+3800000D02*
X+990000Y+3508000D01*
X+769500Y+3287500D01*
X+769500Y+3190500D01*
X+833000Y+3127000D01*
X+833000Y+2969730D01*
X+717200Y+2969730D01*
X+641000Y+3045930D01*
X+641000Y+3098000D01*
X+990000Y+3800000D02*
X+860000Y+3800000D01*
X+666000Y+3606000D01*
X+641000Y+3606000D01*
X+1180000Y+3800000D02*
X+990000Y+3800000D01*
X+641000Y+2844000D02*
X+452000Y+2655000D01*
X+452000Y+1031500D01*
X+359500Y+939000D01*
X+198000Y+939000D01*
X+134500Y+875500D01*
X+134500Y+142500D01*
X+198000Y+79000D01*
X+3944500Y+79000D01*
X+4229076Y+363576D01*
X+4229076Y+525366D01*
X+641000Y+2844000D02*
X+886000Y+2844000D01*
X+1000000Y+2730000D01*
X+4056000Y+780000D02*
X+4130000Y+854000D01*
X+4130000Y+2139000D01*
X+4019000Y+2250000D01*
X+4740000Y+240000D02*
X+4670000Y+310000D01*
X+4940000Y+240000D02*
X+4740000Y+240000D01*
X+4229076Y+525366D02*
X+4231281Y+525366D01*
X+4516647Y+240000D01*
X+4740000Y+240000D01*
X+5810000Y+1004000D02*
X+5812058Y+1004000D01*
X+6004097Y+811961D01*
X+6004097Y+741405D01*
X+6004097Y+665903D01*
X+6010000Y+660000D01*
X+5540000Y+4450000D02*
X+5540000Y+4144880D01*
X+4745120Y+3350000D01*
X+3410000Y+3350000D01*
X+3050000Y+2990000D01*
X+3040000Y+2990000D01*
X+5540000Y+4450000D02*
X+5540000Y+4630000D01*
X+5610000Y+4700000D01*
X+3040000Y+2990000D02*
X+3123500Y+2906500D01*
X+3123500Y+2802800D01*
X+2110000Y+2960000D02*
X+1932135Y+3137865D01*
X+1932135Y+4057865D01*
X+1540000Y+4450000D01*
X+1540000Y+4630000D01*
X+1610000Y+4700000D01*
X+2110000Y+2780000D02*
X+2110000Y+2960000D01*
D12*
X+4720500Y+3107200D02*
X+4720500Y+2880500D01*
X+4720000Y+2880000D01*
X+5022000Y+748000D02*
X+5340000Y+430000D01*
X+5022000Y+748000D02*
X+4940000Y+748000D01*
X+5022000Y+748000D02*
X+5169500Y+895500D01*
X+5169500Y+1399650D01*
X+5340000Y+880000D02*
X+5550500Y+1090500D01*
X+5550500Y+1399650D01*
X+5340000Y+880000D02*
X+5470000Y+750000D01*
X+5810000Y+750000D01*
D10*
X+2869500Y+2802800D02*
X+2611000Y+2802800D01*
X+2588200Y+2780000D01*
X+2200000Y+2780000D01*
X+641000Y+2590000D02*
X+641000Y+2336000D01*
X+641000Y+4114000D02*
X+388500Y+3861500D01*
X+388500Y+2718500D01*
X+260000Y+2590000D01*
X+6356000Y+3864000D02*
X+6484500Y+3735500D01*
X+6484500Y+2846500D01*
X+6737000Y+2594000D01*
X+641000Y+2590000D02*
X+769500Y+2590000D01*
X+819500Y+2640000D01*
X+1000000Y+2640000D01*
X+2454500Y+862800D02*
X+2738000Y+862800D01*
X+2200000Y+2847310D02*
X+2200000Y+2873000D01*
X+2200000Y+2780000D02*
X+2200000Y+2847310D01*
X+5677500Y+1920350D02*
X+5677500Y+1860495D01*
X+5596962Y+1779957D01*
X+5504482Y+1779957D01*
X+5423500Y+1860939D01*
X+5423500Y+1920350D01*
X+5677500Y+1920350D02*
X+5804500Y+1920350D01*
X+5684000Y+2350000D02*
X+5677500Y+2343500D01*
X+5677500Y+1920350D01*
X+5804500Y+1920350D02*
X+5804500Y+1501250D01*
X+5804500Y+1399650D01*
X+6737000Y+1070000D02*
X+6737000Y+1036434D01*
X+6694366Y+993800D01*
X+6010000Y+570000D02*
X+6030000Y+590000D01*
X+6218680Y+590000D01*
X+6331710Y+703030D01*
X+6403596Y+703030D01*
X+6630566Y+930000D01*
X+6737000Y+1070000D02*
X+6694366Y+993800D01*
X+6630566Y+930000D01*
X+5804500Y+1399650D02*
X+5804500Y+1273215D01*
X+6147715Y+930000D01*
X+6630566Y+930000D01*
X+4020000Y+1070000D02*
X+4019000Y+1071000D01*
X+4019000Y+1259000D01*
X+4019000Y+1335600D02*
X+4019000Y+1259000D01*
X+2876000Y+1335600D02*
X+2820000Y+1279600D01*
X+2820000Y+910000D01*
X+2772800Y+862800D01*
X+2738000Y+862800D01*
X+6356000Y+3864000D02*
X+5760000Y+4460000D01*
X+5760000Y+4750000D01*
X+5668672Y+4841328D01*
X+5497328Y+4841328D01*
X+5356000Y+4700000D01*
X+5450000Y+4606000D01*
X+5450000Y+4450000D01*
X+1180000Y+3890000D02*
X+1180000Y+4180000D01*
X+1450000Y+4450000D01*
X+1450000Y+4606000D01*
X+1356000Y+4700000D01*
X+1180000Y+3890000D02*
X+990000Y+3890000D01*
X+641000Y+4114000D02*
X+865000Y+3890000D01*
X+990000Y+3890000D01*
X+4019000Y+1335600D02*
X+4019000Y+1791000D01*
X+3892000Y+1918000D01*
X+3892000Y+2250000D01*
X+4764000Y+494000D02*
X+4670000Y+400000D01*
X+4940000Y+494000D02*
X+4764000Y+494000D01*
X+4310000Y+780000D02*
X+4596000Y+494000D01*
X+4764000Y+494000D01*
X+5810000Y+242000D02*
X+5196682Y+242000D01*
X+4944682Y+494000D01*
X+4940000Y+494000D01*
X+5810000Y+242000D02*
X+5825915Y+242000D01*
X+6010000Y+426085D01*
X+6010000Y+570000D01*
X+2869500Y+2802800D02*
X+2869500Y+2909500D01*
X+2950000Y+2990000D01*
X+2200000Y+2960000D02*
X+2200000Y+2873000D01*
X+2200000Y+2960000D02*
X+2200000Y+2993205D01*
X+2247529Y+3040734D01*
D12*
X+3958500Y+3107200D02*
X+3958500Y+2881500D01*
X+3960000Y+2880000D01*
X+1404500Y+1984000D02*
X+1277500Y+1857000D01*
X+960000Y+1857000D01*
X+862000Y+1955000D01*
X+579000Y+1955000D01*
X+515500Y+1891500D01*
X+515500Y+1191500D01*
X+641000Y+1066000D01*
X+6167000Y+3317500D02*
X+6205500Y+3356000D01*
X+6356000Y+3356000D01*
X+3881000Y+1793500D02*
X+3881000Y+1423500D01*
X+3892000Y+1412500D01*
X+3892000Y+1335600D01*
X+3377500Y+2802800D02*
X+3377500Y+2256500D01*
X+3384000Y+2250000D01*
X+4212500Y+3107200D02*
X+4212500Y+2892500D01*
X+4210000Y+2890000D01*
X+5430000Y+2350000D02*
X+5169500Y+2089500D01*
X+5169500Y+1920350D01*
X+5430000Y+2350000D02*
X+5470000Y+2390000D01*
X+5470000Y+3050000D01*
X+641000Y+812000D02*
X+1152001Y+812000D01*
X+1692500Y+1352499D01*
X+1692500Y+1777200D01*
X+641000Y+1320000D02*
X+1284707Y+1320000D01*
X+1625821Y+1661114D01*
X+1625821Y+1899238D01*
X+1662201Y+1935618D01*
X+1776671Y+1935618D01*
X+1819500Y+1892789D01*
X+1819500Y+1777200D01*
X+641000Y+1574000D02*
X+1136313Y+1574000D01*
X+1589174Y+2026861D01*
X+1849432Y+2026861D01*
X+1948182Y+1928111D01*
X+1948182Y+1778882D01*
X+1946500Y+1777200D01*
X+641000Y+304000D02*
X+807000Y+470000D01*
X+2199999Y+470000D01*
X+2374689Y+644690D01*
X+2374689Y+1304689D01*
X+2454500Y+1384500D01*
X+2454500Y+1777200D01*
X+641000Y+558000D02*
X+2013291Y+558000D01*
X+2329556Y+874265D01*
X+2329556Y+1775144D01*
X+2327500Y+1777200D01*
X+260000Y+558000D02*
X+491750Y+558000D01*
X+640655Y+706905D01*
X+1856905Y+706905D01*
X+2200000Y+1050000D01*
X+2200000Y+1776701D01*
X+2200499Y+1777200D01*
D10*
X+2110000Y+2780000D02*
X+1896150Y+2780000D01*
X+1889650Y+2786500D01*
X+2876000Y+1335600D02*
X+2876000Y+1696000D01*
X+2880500Y+1700500D01*
D12*
X+3770597Y+1335600D02*
X+3765000Y+1335600D01*
X+5698000Y+608000D02*
X+5710536Y+620536D01*
X+5698000Y+608000D02*
X+5810000Y+496000D01*
X+5423500Y+1399650D02*
X+5423500Y+1503500D01*
X+5556007Y+1636007D01*
X+5647570Y+1636007D01*
X+6050000Y+1630000D02*
X+6050000Y+2542000D01*
X+6356000Y+2848000D01*
X+6737000Y+2340000D02*
X+6460000Y+2063000D01*
X+6460000Y+1834885D01*
D13*
X+6460000Y+1829115D01*
D12*
X+6460000Y+1656092D01*
X+6462051Y+1654041D01*
X+6462051Y+1528375D01*
X+6363676Y+1430000D01*
X+6003746Y+1430000D01*
X+5990000Y+1400000D01*
X+3637907Y+1187968D02*
X+3637907Y+1335507D01*
X+3638000Y+1335600D01*
X+1770000Y+2550000D02*
X+1770000Y+2157320D01*
X+1816320Y+2111000D01*
X+3436500Y+2111000D01*
X+3511000Y+2036500D01*
X+3511000Y+1335600D01*
X+5046654Y+2434814D02*
X+5046654Y+2354933D01*
D13*
X+5046654Y+2345067D01*
D12*
X+5046654Y+1966402D01*
X+5042500Y+1962248D01*
X+5042500Y+1920350D01*
D10*
X+3466000Y+260000D02*
X+3587586Y+381591D01*
D11*
X+3598406Y+392412D01*
D10*
X+3741393Y+535393D01*
X+4065393Y+535393D01*
X+4310000Y+780000D01*
D14*
X+2674500Y+2682500D03*
X+4915500Y+1920350D03*
X+4229076Y+525366D03*
X+4020000Y+1070000D03*
X+2454500Y+862800D03*
X+3892000Y+2250000D03*
X+2247529Y+3040734D03*
D15*
X+1404500Y+1984000D03*
X+6167000Y+3317500D03*
X+3881000Y+1793500D03*
X+1692500Y+1777200D03*
X+1819500Y+1777200D03*
X+1946500Y+1777200D03*
X+2454500Y+1777200D03*
X+2327500Y+1777200D03*
X+2200499Y+1777200D03*
D14*
X+1889650Y+2786500D03*
X+2880500Y+1700500D03*
D15*
X+3770597Y+1335600D03*
X+5647570Y+1636007D03*
X+6050000Y+1630000D03*
X+5990000Y+1400000D03*
X+5042500Y+1399650D03*
X+3637907Y+1187968D03*
X+1770000Y+2550000D03*
X+5046654Y+2434814D03*
D17*
X+641000Y+4876000D03*
X+260000Y+4622000D03*
X+641000Y+4622000D03*
X+260000Y+4368000D03*
X+641000Y+4368000D03*
X+260000Y+4114000D03*
X+641000Y+4114000D03*
X+260000Y+3860000D03*
X+641000Y+3860000D03*
X+260000Y+3606000D03*
X+641000Y+3606000D03*
X+260000Y+3352000D03*
X+641000Y+3352000D03*
X+260000Y+3098000D03*
X+641000Y+3098000D03*
X+260000Y+2844000D03*
X+641000Y+2844000D03*
X+260000Y+2590000D03*
X+641000Y+2590000D03*
X+260000Y+2336000D03*
X+641000Y+2336000D03*
X+260000Y+2082000D03*
X+641000Y+2082000D03*
X+260000Y+1828000D03*
X+641000Y+1828000D03*
X+260000Y+1574000D03*
X+641000Y+1574000D03*
X+260000Y+1320000D03*
X+641000Y+1320000D03*
X+260000Y+1066000D03*
X+641000Y+1066000D03*
X+260000Y+812000D03*
X+641000Y+812000D03*
X+260000Y+558000D03*
X+641000Y+558000D03*
X+260000Y+304000D03*
X+641000Y+304000D03*
X+6737000Y+4880000D03*
X+6356000Y+4626000D03*
X+6737000Y+4626000D03*
X+6356000Y+4372000D03*
X+6737000Y+4372000D03*
X+6356000Y+4118000D03*
X+6737000Y+4118000D03*
X+6356000Y+3864000D03*
X+6737000Y+3864000D03*
X+6356000Y+3610000D03*
X+6737000Y+3610000D03*
X+6356000Y+3356000D03*
X+6737000Y+3356000D03*
X+6356000Y+3102000D03*
X+6737000Y+3102000D03*
X+6356000Y+2848000D03*
X+6737000Y+2848000D03*
X+6356000Y+2594000D03*
X+6737000Y+2594000D03*
X+6356000Y+2340000D03*
X+6737000Y+2340000D03*
X+6356000Y+2086000D03*
X+6737000Y+2086000D03*
X+6356000Y+1832000D03*
X+6737000Y+1832000D03*
X+6356000Y+1578000D03*
X+6737000Y+1578000D03*
X+6356000Y+1324000D03*
X+6737000Y+1324000D03*
X+6356000Y+1070000D03*
X+6737000Y+1070000D03*
X+6356000Y+816000D03*
X+6737000Y+816000D03*
X+6356000Y+562000D03*
X+6737000Y+562000D03*
X+6356000Y+308000D03*
X+6737000Y+308000D03*
D18*
X+3720000Y+260000D03*
X+3466000Y+260000D03*
X+3212000Y+260000D03*
X+2958000Y+260000D03*
X+2704000Y+260000D03*
X+2450000Y+260000D03*
X+2196000Y+260000D03*
X+1942000Y+260000D03*
X+1688000Y+260000D03*
X+1434000Y+260000D03*
D19*
X+1610000Y+4700000D03*
X+1356000Y+4700000D03*
X+2869500Y+2802800D03*
X+3123500Y+2802800D03*
X+3377500Y+2802800D03*
X+1170000Y+2974000D03*
X+1170000Y+2720000D03*
D18*
X+4720500Y+3107200D03*
X+4466500Y+3107200D03*
X+4212500Y+3107200D03*
X+3958500Y+3107200D03*
D19*
X+5176000Y+2350000D03*
X+5430000Y+2350000D03*
X+5684000Y+2350000D03*
D18*
X+5810000Y+242000D03*
X+5810000Y+496000D03*
X+5810000Y+750000D03*
X+5810000Y+1004000D03*
D19*
X+4056000Y+780000D03*
X+4310000Y+780000D03*
D18*
X+4940000Y+240000D03*
X+4940000Y+494000D03*
X+4940000Y+748000D03*
X+4940000Y+1002000D03*
D19*
X+5610000Y+4700000D03*
X+5356000Y+4700000D03*
D71*
X+4915500Y+1920350D03*
X+5042500Y+1920350D03*
X+5169500Y+1920350D03*
X+5296500Y+1920350D03*
X+5423500Y+1920350D03*
X+5550500Y+1920350D03*
X+5677500Y+1920350D03*
X+5804500Y+1920350D03*
X+5804500Y+1399650D03*
X+5677500Y+1399650D03*
X+5550500Y+1399650D03*
X+5423500Y+1399650D03*
X+5296500Y+1399650D03*
X+5169500Y+1399650D03*
X+5042500Y+1399650D03*
X+4915500Y+1399650D03*
X+4019000Y+1335600D03*
X+3892000Y+1335600D03*
X+3765000Y+1335600D03*
X+3638000Y+1335600D03*
X+3511000Y+1335600D03*
X+3384000Y+1335600D03*
X+3257000Y+1335600D03*
X+3130000Y+1335600D03*
X+3003000Y+1335600D03*
X+2876000Y+1335600D03*
X+2876000Y+2250000D03*
X+3003000Y+2250000D03*
X+3130000Y+2250000D03*
X+3257000Y+2250000D03*
X+3384000Y+2250000D03*
X+3511000Y+2250000D03*
X+3638000Y+2250000D03*
X+3765000Y+2250000D03*
X+3892000Y+2250000D03*
X+4019000Y+2250000D03*
D23*
X+3960000Y+2880000D03*
X+3960000Y+2780000D03*
X+4210000Y+2890000D03*
X+4210000Y+2790000D03*
X+4720000Y+2880000D03*
X+4720000Y+2780000D03*
D21*
X+2110000Y+2780000D03*
X+2200000Y+2780000D03*
X+2110000Y+2960000D03*
X+2200000Y+2960000D03*
X+990000Y+3800000D03*
X+990000Y+3890000D03*
X+1180000Y+3800000D03*
X+1180000Y+3890000D03*
X+1000000Y+2730000D03*
X+1000000Y+2640000D03*
X+5540000Y+4450000D03*
X+5450000Y+4450000D03*
X+1540000Y+4450000D03*
X+1450000Y+4450000D03*
D24*
X+2920000Y+910000D03*
X+2820000Y+910000D03*
D21*
X+6010000Y+660000D03*
X+6010000Y+570000D03*
X+4670000Y+310000D03*
X+4670000Y+400000D03*
D19*
X+5340000Y+880000D03*
X+5340000Y+430000D03*
X+5470000Y+3050000D03*
X+1130000Y+2080000D03*
D21*
X+3040000Y+2990000D03*
X+2950000Y+2990000D03*
D22*
X+0Y+0D02*
X+1650000Y+0D01*
X+7000000Y+0D02*
X+7000000Y+6000000D01*
X+5000000Y+6000000D01*
X+5000000Y+3700000D01*
X+4800000Y+3500000D01*
X+2200000Y+3500000D01*
X+2000000Y+3700000D02*
X+2000000Y+6000000D01*
X+0Y+6000000D01*
X+0Y+0D01*
X+2000000Y+3700000D02*
X+2200000Y+3500000D01*
X+5160000Y+0D02*
X+7000000Y+0D01*
X+1750000Y-200000D02*
X+5050000Y-200000D01*
X+1650000Y+0D02*
X+1750000Y-200000D01*
X+5160000Y+0D02*
X+5050000Y-200000D01*
X+4550045Y+50000D02*
X+4549508Y+63142D01*
X+4545144Y+89427D01*
X+4536029Y+115712D01*
X+4521182Y+141997D01*
X+4498470Y+168118D01*
X+4472185Y+187898D01*
X+4445900Y+200658D01*
X+4419615Y+208108D01*
X+4393330Y+210987D01*
X+4389000Y+211045D01*
X+4227955Y+50000D02*
X+4228492Y+63142D01*
X+4232856Y+89427D01*
X+4241971Y+115712D01*
X+4256818Y+141997D01*
X+4279530Y+168118D01*
X+4305815Y+187898D01*
X+4332100Y+200658D01*
X+4358385Y+208108D01*
X+4384670Y+210987D01*
X+4389000Y+211045D01*
X+4227955Y+50000D02*
X+4228492Y+36858D01*
X+4232856Y+10573D01*
X+4241971Y-15712D01*
X+4256818Y-41997D01*
X+4279530Y-68118D01*
X+4305815Y-87898D01*
X+4332100Y-100658D01*
X+4358385Y-108108D01*
X+4384670Y-110987D01*
X+4389000Y-111045D01*
X+4550045Y+50000D02*
X+4549508Y+36858D01*
X+4545144Y+10573D01*
X+4536029Y-15712D01*
X+4521182Y-41997D01*
X+4498470Y-68118D01*
X+4472185Y-87898D01*
X+4445900Y-100658D01*
X+4419615Y-108108D01*
X+4393330Y-110987D01*
X+4389000Y-111045D01*
X+6074045Y+5130000D02*
X+6073508Y+5143142D01*
X+6069144Y+5169427D01*
X+6060029Y+5195712D01*
X+6045182Y+5221997D01*
X+6022470Y+5248118D01*
X+5996185Y+5267898D01*
X+5969900Y+5280658D01*
X+5943615Y+5288108D01*
X+5917330Y+5290987D01*
X+5913000Y+5291045D01*
X+5751955Y+5130000D02*
X+5752492Y+5143142D01*
X+5756856Y+5169427D01*
X+5765971Y+5195712D01*
X+5780818Y+5221997D01*
X+5803530Y+5248118D01*
X+5829815Y+5267898D01*
X+5856100Y+5280658D01*
X+5882385Y+5288108D01*
X+5908670Y+5290987D01*
X+5913000Y+5291045D01*
X+5751955Y+5130000D02*
X+5752492Y+5116858D01*
X+5756856Y+5090573D01*
X+5765971Y+5064288D01*
X+5780818Y+5038003D01*
X+5803530Y+5011882D01*
X+5829815Y+4992102D01*
X+5856100Y+4979342D01*
X+5882385Y+4971892D01*
X+5908670Y+4969013D01*
X+5913000Y+4968955D01*
X+6074045Y+5130000D02*
X+6073508Y+5116858D01*
X+6069144Y+5090573D01*
X+6060029Y+5064288D01*
X+6045182Y+5038003D01*
X+6022470Y+5011882D01*
X+5996185Y+4992102D01*
X+5969900Y+4979342D01*
X+5943615Y+4971892D01*
X+5917330Y+4969013D01*
X+5913000Y+4968955D01*
X+1248045Y+5257000D02*
X+1247508Y+5270142D01*
X+1243144Y+5296427D01*
X+1234029Y+5322712D01*
X+1219182Y+5348997D01*
X+1196470Y+5375118D01*
X+1170185Y+5394898D01*
X+1143900Y+5407658D01*
X+1117615Y+5415108D01*
X+1091330Y+5417987D01*
X+1087000Y+5418045D01*
X+925955Y+5257000D02*
X+926492Y+5270142D01*
X+930856Y+5296427D01*
X+939971Y+5322712D01*
X+954818Y+5348997D01*
X+977530Y+5375118D01*
X+1003815Y+5394898D01*
X+1030100Y+5407658D01*
X+1056385Y+5415108D01*
X+1082670Y+5417987D01*
X+1087000Y+5418045D01*
X+925955Y+5257000D02*
X+926492Y+5243858D01*
X+930856Y+5217573D01*
X+939971Y+5191288D01*
X+954818Y+5165003D01*
X+977530Y+5138882D01*
X+1003815Y+5119102D01*
X+1030100Y+5106342D01*
X+1056385Y+5098892D01*
X+1082670Y+5096013D01*
X+1087000Y+5095955D01*
X+1248045Y+5257000D02*
X+1247508Y+5243858D01*
X+1243144Y+5217573D01*
X+1234029Y+5191288D01*
X+1219182Y+5165003D01*
X+1196470Y+5138882D01*
X+1170185Y+5119102D01*
X+1143900Y+5106342D01*
X+1117615Y+5098892D01*
X+1091330Y+5096013D01*
X+1087000Y+5095955D01*
M02*
