G04 PROTEUS GERBER X2 FILE*
%TF.GenerationSoftware,Labcenter,Proteus,8.12-SP2-Build31155*%
%TF.CreationDate,2024-11-30T19:26:21+00:00*%
%TF.FileFunction,Plated,1,2,PTH*%
%TF.FilePolarity,Positive*%
%TF.Part,Single*%
%TF.SameCoordinates,{e6e8286e-83a0-46e7-8d5c-4e76f455a4ca}*%
%FSLAX45Y45*%
%MOMM*%
G01*
%TA.AperFunction,ViaDrill*%
%ADD66C,0.381000*%
%ADD67C,0.254000*%
%TA.AperFunction,ComponentDrill*%
%ADD68C,0.762000*%
%ADD69C,0.889000*%
%TA.AperFunction,ComponentDrill*%
%ADD74C,1.016000*%
%TD.AperFunction*%
D66*
X+2674500Y+2682500D03*
X+4915500Y+1920350D03*
X+4229076Y+525366D03*
X+4020000Y+1070000D03*
X+2454500Y+862800D03*
X+3892000Y+2250000D03*
X+2247529Y+3040734D03*
D67*
X+1404500Y+1984000D03*
X+6167000Y+3317500D03*
X+3881000Y+1793500D03*
X+1692500Y+1777200D03*
X+1819500Y+1777200D03*
X+1946500Y+1777200D03*
X+2454500Y+1777200D03*
X+2327500Y+1777200D03*
X+2200499Y+1777200D03*
D66*
X+1889650Y+2786500D03*
X+2880500Y+1700500D03*
D67*
X+3770597Y+1335600D03*
X+5647570Y+1636007D03*
X+6050000Y+1630000D03*
X+5990000Y+1400000D03*
X+5042500Y+1399650D03*
X+3637907Y+1187968D03*
X+1770000Y+2550000D03*
X+5046654Y+2434814D03*
D68*
X+260000Y+4876000D03*
D69*
X+641000Y+4876000D03*
X+260000Y+4622000D03*
X+641000Y+4622000D03*
X+260000Y+4368000D03*
X+641000Y+4368000D03*
X+260000Y+4114000D03*
X+641000Y+4114000D03*
X+260000Y+3860000D03*
X+641000Y+3860000D03*
X+260000Y+3606000D03*
X+641000Y+3606000D03*
X+260000Y+3352000D03*
X+641000Y+3352000D03*
X+260000Y+3098000D03*
X+641000Y+3098000D03*
X+260000Y+2844000D03*
X+641000Y+2844000D03*
X+260000Y+2590000D03*
X+641000Y+2590000D03*
X+260000Y+2336000D03*
X+641000Y+2336000D03*
X+260000Y+2082000D03*
X+641000Y+2082000D03*
X+260000Y+1828000D03*
X+641000Y+1828000D03*
X+260000Y+1574000D03*
X+641000Y+1574000D03*
X+260000Y+1320000D03*
X+641000Y+1320000D03*
X+260000Y+1066000D03*
X+641000Y+1066000D03*
X+260000Y+812000D03*
X+641000Y+812000D03*
X+260000Y+558000D03*
X+641000Y+558000D03*
X+260000Y+304000D03*
X+641000Y+304000D03*
D68*
X+6356000Y+4880000D03*
D69*
X+6737000Y+4880000D03*
X+6356000Y+4626000D03*
X+6737000Y+4626000D03*
X+6356000Y+4372000D03*
X+6737000Y+4372000D03*
X+6356000Y+4118000D03*
X+6737000Y+4118000D03*
X+6356000Y+3864000D03*
X+6737000Y+3864000D03*
X+6356000Y+3610000D03*
X+6737000Y+3610000D03*
X+6356000Y+3356000D03*
X+6737000Y+3356000D03*
X+6356000Y+3102000D03*
X+6737000Y+3102000D03*
X+6356000Y+2848000D03*
X+6737000Y+2848000D03*
X+6356000Y+2594000D03*
X+6737000Y+2594000D03*
X+6356000Y+2340000D03*
X+6737000Y+2340000D03*
X+6356000Y+2086000D03*
X+6737000Y+2086000D03*
X+6356000Y+1832000D03*
X+6737000Y+1832000D03*
X+6356000Y+1578000D03*
X+6737000Y+1578000D03*
X+6356000Y+1324000D03*
X+6737000Y+1324000D03*
X+6356000Y+1070000D03*
X+6737000Y+1070000D03*
X+6356000Y+816000D03*
X+6737000Y+816000D03*
X+6356000Y+562000D03*
X+6737000Y+562000D03*
X+6356000Y+308000D03*
X+6737000Y+308000D03*
D74*
X+3720000Y+260000D03*
X+3466000Y+260000D03*
X+3212000Y+260000D03*
X+2958000Y+260000D03*
X+2704000Y+260000D03*
X+2450000Y+260000D03*
X+2196000Y+260000D03*
X+1942000Y+260000D03*
X+1688000Y+260000D03*
X+1434000Y+260000D03*
X+1610000Y+4700000D03*
X+1356000Y+4700000D03*
X+2869500Y+2802800D03*
X+3123500Y+2802800D03*
X+3377500Y+2802800D03*
X+1170000Y+2974000D03*
X+1170000Y+2720000D03*
X+4720500Y+3107200D03*
X+4466500Y+3107200D03*
X+4212500Y+3107200D03*
X+3958500Y+3107200D03*
X+5176000Y+2350000D03*
X+5430000Y+2350000D03*
X+5684000Y+2350000D03*
X+5810000Y+242000D03*
X+5810000Y+496000D03*
X+5810000Y+750000D03*
X+5810000Y+1004000D03*
X+4056000Y+780000D03*
X+4310000Y+780000D03*
X+4940000Y+240000D03*
X+4940000Y+494000D03*
X+4940000Y+748000D03*
X+4940000Y+1002000D03*
X+5610000Y+4700000D03*
X+5356000Y+4700000D03*
D68*
X+5340000Y+880000D03*
X+5340000Y+430000D03*
X+5470000Y+3050000D03*
X+1130000Y+2080000D03*
M02*
