G04 PROTEUS GERBER X2 FILE*
%TF.GenerationSoftware,Labcenter,Proteus,8.12-SP2-Build31155*%
%TF.CreationDate,2024-11-30T19:26:21+00:00*%
%TF.FileFunction,Legend,Top*%
%TF.FilePolarity,Positive*%
%TF.Part,Single*%
%TF.SameCoordinates,{e6e8286e-83a0-46e7-8d5c-4e76f455a4ca}*%
%FSLAX45Y45*%
%MOMM*%
G01*
%TA.AperFunction,Profile*%
%ADD22C,0.203200*%
%TA.AperFunction,Material*%
%ADD25C,0.203200*%
%TD.AperFunction*%
D22*
X+0Y+0D02*
X+1650000Y+0D01*
X+7000000Y+0D02*
X+7000000Y+6000000D01*
X+5000000Y+6000000D01*
X+5000000Y+3700000D01*
X+4800000Y+3500000D01*
X+2200000Y+3500000D01*
X+2000000Y+3700000D02*
X+2000000Y+6000000D01*
X+0Y+6000000D01*
X+0Y+0D01*
X+2000000Y+3700000D02*
X+2200000Y+3500000D01*
X+5160000Y+0D02*
X+7000000Y+0D01*
X+1750000Y-200000D02*
X+5050000Y-200000D01*
X+1650000Y+0D02*
X+1750000Y-200000D01*
X+5160000Y+0D02*
X+5050000Y-200000D01*
X+4550045Y+50000D02*
X+4549508Y+63142D01*
X+4545144Y+89427D01*
X+4536029Y+115712D01*
X+4521182Y+141997D01*
X+4498470Y+168118D01*
X+4472185Y+187898D01*
X+4445900Y+200658D01*
X+4419615Y+208108D01*
X+4393330Y+210987D01*
X+4389000Y+211045D01*
X+4227955Y+50000D02*
X+4228492Y+63142D01*
X+4232856Y+89427D01*
X+4241971Y+115712D01*
X+4256818Y+141997D01*
X+4279530Y+168118D01*
X+4305815Y+187898D01*
X+4332100Y+200658D01*
X+4358385Y+208108D01*
X+4384670Y+210987D01*
X+4389000Y+211045D01*
X+4227955Y+50000D02*
X+4228492Y+36858D01*
X+4232856Y+10573D01*
X+4241971Y-15712D01*
X+4256818Y-41997D01*
X+4279530Y-68118D01*
X+4305815Y-87898D01*
X+4332100Y-100658D01*
X+4358385Y-108108D01*
X+4384670Y-110987D01*
X+4389000Y-111045D01*
X+4550045Y+50000D02*
X+4549508Y+36858D01*
X+4545144Y+10573D01*
X+4536029Y-15712D01*
X+4521182Y-41997D01*
X+4498470Y-68118D01*
X+4472185Y-87898D01*
X+4445900Y-100658D01*
X+4419615Y-108108D01*
X+4393330Y-110987D01*
X+4389000Y-111045D01*
X+6074045Y+5130000D02*
X+6073508Y+5143142D01*
X+6069144Y+5169427D01*
X+6060029Y+5195712D01*
X+6045182Y+5221997D01*
X+6022470Y+5248118D01*
X+5996185Y+5267898D01*
X+5969900Y+5280658D01*
X+5943615Y+5288108D01*
X+5917330Y+5290987D01*
X+5913000Y+5291045D01*
X+5751955Y+5130000D02*
X+5752492Y+5143142D01*
X+5756856Y+5169427D01*
X+5765971Y+5195712D01*
X+5780818Y+5221997D01*
X+5803530Y+5248118D01*
X+5829815Y+5267898D01*
X+5856100Y+5280658D01*
X+5882385Y+5288108D01*
X+5908670Y+5290987D01*
X+5913000Y+5291045D01*
X+5751955Y+5130000D02*
X+5752492Y+5116858D01*
X+5756856Y+5090573D01*
X+5765971Y+5064288D01*
X+5780818Y+5038003D01*
X+5803530Y+5011882D01*
X+5829815Y+4992102D01*
X+5856100Y+4979342D01*
X+5882385Y+4971892D01*
X+5908670Y+4969013D01*
X+5913000Y+4968955D01*
X+6074045Y+5130000D02*
X+6073508Y+5116858D01*
X+6069144Y+5090573D01*
X+6060029Y+5064288D01*
X+6045182Y+5038003D01*
X+6022470Y+5011882D01*
X+5996185Y+4992102D01*
X+5969900Y+4979342D01*
X+5943615Y+4971892D01*
X+5917330Y+4969013D01*
X+5913000Y+4968955D01*
X+1248045Y+5257000D02*
X+1247508Y+5270142D01*
X+1243144Y+5296427D01*
X+1234029Y+5322712D01*
X+1219182Y+5348997D01*
X+1196470Y+5375118D01*
X+1170185Y+5394898D01*
X+1143900Y+5407658D01*
X+1117615Y+5415108D01*
X+1091330Y+5417987D01*
X+1087000Y+5418045D01*
X+925955Y+5257000D02*
X+926492Y+5270142D01*
X+930856Y+5296427D01*
X+939971Y+5322712D01*
X+954818Y+5348997D01*
X+977530Y+5375118D01*
X+1003815Y+5394898D01*
X+1030100Y+5407658D01*
X+1056385Y+5415108D01*
X+1082670Y+5417987D01*
X+1087000Y+5418045D01*
X+925955Y+5257000D02*
X+926492Y+5243858D01*
X+930856Y+5217573D01*
X+939971Y+5191288D01*
X+954818Y+5165003D01*
X+977530Y+5138882D01*
X+1003815Y+5119102D01*
X+1030100Y+5106342D01*
X+1056385Y+5098892D01*
X+1082670Y+5096013D01*
X+1087000Y+5095955D01*
X+1248045Y+5257000D02*
X+1247508Y+5243858D01*
X+1243144Y+5217573D01*
X+1234029Y+5191288D01*
X+1219182Y+5165003D01*
X+1196470Y+5138882D01*
X+1170185Y+5119102D01*
X+1143900Y+5106342D01*
X+1117615Y+5098892D01*
X+1091330Y+5096013D01*
X+1087000Y+5095955D01*
D25*
X+1307000Y+133000D02*
X+3847000Y+133000D01*
X+3847000Y+387000D01*
X+1307000Y+387000D01*
X+1307000Y+133000D01*
X+2386500Y+31400D02*
X+2386500Y+16160D01*
X+2402375Y+920D01*
X+2465875Y+920D01*
X+2481750Y+16160D01*
X+2481750Y+92360D01*
X+2545250Y+61880D02*
X+2577000Y+92360D01*
X+2577000Y+920D01*
X+2735750Y+31400D02*
X+2640500Y+31400D01*
X+2704000Y+92360D01*
X+2704000Y+920D01*
X+1102000Y+3557000D02*
X+1864000Y+3557000D01*
X+1864000Y+4954000D01*
X+1102000Y+4954000D01*
X+1102000Y+3557000D01*
X+1864000Y+4446000D02*
X+1102000Y+4446000D01*
X+1356000Y+3455400D02*
X+1356000Y+3440160D01*
X+1371875Y+3424920D01*
X+1435375Y+3424920D01*
X+1451250Y+3440160D01*
X+1451250Y+3516360D01*
X+1514750Y+3485880D02*
X+1546500Y+3516360D01*
X+1546500Y+3424920D01*
X+2615500Y+2548800D02*
X+3631500Y+2548800D01*
X+3631500Y+3183800D01*
X+2615500Y+3183800D01*
X+2615500Y+2548800D01*
X+2615500Y+3056800D02*
X+3631500Y+3056800D01*
X+2996500Y+3254920D02*
X+2996500Y+3239680D01*
X+3012375Y+3224440D01*
X+3075875Y+3224440D01*
X+3091750Y+3239680D01*
X+3091750Y+3315880D01*
X+3218750Y+3300640D02*
X+3202875Y+3315880D01*
X+3155250Y+3315880D01*
X+3139375Y+3300640D01*
X+3139375Y+3239680D01*
X+3155250Y+3224440D01*
X+3202875Y+3224440D01*
X+3218750Y+3239680D01*
X+3218750Y+3254920D01*
X+3202875Y+3270160D01*
X+3139375Y+3270160D01*
X+916000Y+2466000D02*
X+1551000Y+2466000D01*
X+1551000Y+3228000D01*
X+916000Y+3228000D01*
X+916000Y+2466000D01*
X+1424000Y+3228000D02*
X+1424000Y+2466000D01*
X+1652600Y+2720000D02*
X+1667840Y+2720000D01*
X+1683080Y+2735875D01*
X+1683080Y+2799375D01*
X+1667840Y+2815250D01*
X+1591640Y+2815250D01*
X+1622120Y+2942250D02*
X+1637360Y+2926375D01*
X+1637360Y+2878750D01*
X+1622120Y+2862875D01*
X+1606880Y+2862875D01*
X+1591640Y+2878750D01*
X+1591640Y+2926375D01*
X+1606880Y+2942250D01*
X+1667840Y+2942250D01*
X+1683080Y+2926375D01*
X+1683080Y+2878750D01*
X+3831500Y+2980200D02*
X+4847500Y+2980200D01*
X+4847500Y+3234200D01*
X+3831500Y+3234200D01*
X+3831500Y+2980200D01*
X+4149000Y+2878600D02*
X+4149000Y+2863360D01*
X+4164875Y+2848120D01*
X+4228375Y+2848120D01*
X+4244250Y+2863360D01*
X+4244250Y+2939560D01*
X+4307750Y+2909080D02*
X+4339500Y+2939560D01*
X+4339500Y+2848120D01*
X+4434750Y+2909080D02*
X+4466500Y+2939560D01*
X+4466500Y+2848120D01*
X+4922000Y+2096000D02*
X+5938000Y+2096000D01*
X+5938000Y+2731000D01*
X+4922000Y+2731000D01*
X+4922000Y+2096000D01*
X+4922000Y+2604000D02*
X+5938000Y+2604000D01*
X+5239500Y+2802120D02*
X+5239500Y+2786880D01*
X+5255375Y+2771640D01*
X+5318875Y+2771640D01*
X+5334750Y+2786880D01*
X+5334750Y+2863080D01*
X+5398250Y+2832600D02*
X+5430000Y+2863080D01*
X+5430000Y+2771640D01*
X+5493500Y+2786880D02*
X+5493500Y+2847840D01*
X+5509375Y+2863080D01*
X+5572875Y+2863080D01*
X+5588750Y+2847840D01*
X+5588750Y+2786880D01*
X+5572875Y+2771640D01*
X+5509375Y+2771640D01*
X+5493500Y+2786880D01*
X+5493500Y+2771640D02*
X+5588750Y+2863080D01*
X+5683000Y+115000D02*
X+5937000Y+115000D01*
X+5937000Y+1131000D01*
X+5683000Y+1131000D01*
X+5683000Y+115000D01*
X+5611880Y+496000D02*
X+5627120Y+496000D01*
X+5642360Y+511875D01*
X+5642360Y+575375D01*
X+5627120Y+591250D01*
X+5550920Y+591250D01*
X+5596640Y+654750D02*
X+5581400Y+638875D01*
X+5566160Y+638875D01*
X+5550920Y+654750D01*
X+5550920Y+702375D01*
X+5566160Y+718250D01*
X+5581400Y+718250D01*
X+5596640Y+702375D01*
X+5596640Y+654750D01*
X+5611880Y+638875D01*
X+5627120Y+638875D01*
X+5642360Y+654750D01*
X+5642360Y+702375D01*
X+5627120Y+718250D01*
X+5611880Y+718250D01*
X+5596640Y+702375D01*
X+3802000Y+526000D02*
X+4564000Y+526000D01*
X+4564000Y+1161000D01*
X+3802000Y+1161000D01*
X+3802000Y+526000D01*
X+3802000Y+1034000D02*
X+4564000Y+1034000D01*
X+4056000Y+1232120D02*
X+4056000Y+1216880D01*
X+4071875Y+1201640D01*
X+4135375Y+1201640D01*
X+4151250Y+1216880D01*
X+4151250Y+1293080D01*
X+4198875Y+1277840D02*
X+4214750Y+1293080D01*
X+4262375Y+1293080D01*
X+4278250Y+1277840D01*
X+4278250Y+1262600D01*
X+4262375Y+1247360D01*
X+4214750Y+1247360D01*
X+4198875Y+1232120D01*
X+4198875Y+1201640D01*
X+4278250Y+1201640D01*
X+4813000Y+113000D02*
X+5067000Y+113000D01*
X+5067000Y+1129000D01*
X+4813000Y+1129000D01*
X+4813000Y+113000D01*
X+4741880Y+430500D02*
X+4757120Y+430500D01*
X+4772360Y+446375D01*
X+4772360Y+509875D01*
X+4757120Y+525750D01*
X+4680920Y+525750D01*
X+4711400Y+589250D02*
X+4680920Y+621000D01*
X+4772360Y+621000D01*
X+4696160Y+700375D02*
X+4680920Y+716250D01*
X+4680920Y+763875D01*
X+4696160Y+779750D01*
X+4711400Y+779750D01*
X+4726640Y+763875D01*
X+4726640Y+716250D01*
X+4741880Y+700375D01*
X+4772360Y+700375D01*
X+4772360Y+779750D01*
X+5102000Y+3557000D02*
X+5864000Y+3557000D01*
X+5864000Y+4954000D01*
X+5102000Y+4954000D01*
X+5102000Y+3557000D01*
X+5864000Y+4446000D02*
X+5102000Y+4446000D01*
X+5292500Y+3455400D02*
X+5292500Y+3440160D01*
X+5308375Y+3424920D01*
X+5371875Y+3424920D01*
X+5387750Y+3440160D01*
X+5387750Y+3516360D01*
X+5451250Y+3485880D02*
X+5483000Y+3516360D01*
X+5483000Y+3424920D01*
X+5562375Y+3501120D02*
X+5578250Y+3516360D01*
X+5625875Y+3516360D01*
X+5641750Y+3501120D01*
X+5641750Y+3485880D01*
X+5625875Y+3470640D01*
X+5641750Y+3455400D01*
X+5641750Y+3440160D01*
X+5625875Y+3424920D01*
X+5578250Y+3424920D01*
X+5562375Y+3440160D01*
X+5594125Y+3470640D02*
X+5625875Y+3470640D01*
X+3029000Y+1361500D02*
X+2990900Y+1361500D01*
X+2990900Y+2123500D01*
X+3308400Y+2123500D01*
X+3511600Y+2123500D02*
X+3829100Y+2123500D01*
X+3829100Y+1361500D01*
X+3791000Y+1361500D01*
X+3257600Y+1348800D02*
X+3283000Y+1348800D01*
X+3283000Y+1374200D01*
X+3537000Y+1374200D01*
X+3537000Y+1348800D01*
X+3562400Y+1348800D01*
X+3219500Y+2164140D02*
X+3219500Y+2255580D01*
X+3298875Y+2255580D01*
X+3314750Y+2240340D01*
X+3314750Y+2225100D01*
X+3298875Y+2209860D01*
X+3219500Y+2209860D01*
X+3298875Y+2209860D02*
X+3314750Y+2194620D01*
X+3314750Y+2164140D01*
X+3346500Y+2255580D02*
X+3346500Y+2209860D01*
X+3394125Y+2164140D01*
X+3441750Y+2209860D01*
X+3441750Y+2255580D01*
X+3568750Y+2194620D02*
X+3473500Y+2194620D01*
X+3537000Y+2255580D01*
X+3537000Y+2164140D01*
X+2614520Y+1624800D02*
X+2614520Y+1396200D01*
X+2584531Y+1390321D01*
X+2560346Y+1374173D01*
X+2544199Y+1349989D01*
X+2538320Y+1320000D01*
X+2614520Y+1243800D02*
X+2584531Y+1249679D01*
X+2560346Y+1265827D01*
X+2544199Y+1290011D01*
X+2538320Y+1320000D01*
X+2614520Y+1243800D02*
X+2614520Y+1015200D01*
X+1405480Y+1548600D02*
X+1405480Y+1091400D01*
X+2581500Y+1624800D02*
X+1438500Y+1624800D01*
X+2581500Y+1015200D02*
X+1438500Y+1015200D01*
X+2581500Y+1624800D02*
X+2614520Y+1624800D01*
X+2614520Y+1015200D02*
X+2581500Y+1015200D01*
X+1405480Y+1091400D02*
X+1405480Y+1015200D01*
X+1438500Y+1015200D01*
X+1438500Y+1624800D02*
X+1405480Y+1624800D01*
X+1405480Y+1548600D01*
X+2575404Y+1589240D02*
X+2575369Y+1590085D01*
X+2575082Y+1591776D01*
X+2574483Y+1593467D01*
X+2573503Y+1595158D01*
X+2572003Y+1596826D01*
X+2570312Y+1598046D01*
X+2568621Y+1598822D01*
X+2566930Y+1599259D01*
X+2565244Y+1599400D01*
X+2555084Y+1589240D02*
X+2555119Y+1590085D01*
X+2555406Y+1591776D01*
X+2556005Y+1593467D01*
X+2556985Y+1595158D01*
X+2558485Y+1596826D01*
X+2560176Y+1598046D01*
X+2561867Y+1598822D01*
X+2563558Y+1599259D01*
X+2565244Y+1599400D01*
X+2555084Y+1589240D02*
X+2555119Y+1588395D01*
X+2555406Y+1586704D01*
X+2556005Y+1585013D01*
X+2556985Y+1583322D01*
X+2558485Y+1581654D01*
X+2560176Y+1580434D01*
X+2561867Y+1579658D01*
X+2563558Y+1579221D01*
X+2565244Y+1579080D01*
X+2575404Y+1589240D02*
X+2575369Y+1588395D01*
X+2575082Y+1586704D01*
X+2574483Y+1585013D01*
X+2573503Y+1583322D01*
X+2572003Y+1581654D01*
X+2570312Y+1580434D01*
X+2568621Y+1579658D01*
X+2566930Y+1579221D01*
X+2565244Y+1579080D01*
X+2840580Y+1193000D02*
X+2916780Y+1193000D01*
X+2932020Y+1208875D01*
X+2932020Y+1272375D01*
X+2916780Y+1288250D01*
X+2840580Y+1288250D01*
X+2901540Y+1415250D02*
X+2901540Y+1320000D01*
X+2840580Y+1383500D01*
X+2932020Y+1383500D01*
X+2042050Y+3073520D02*
X+2123012Y+3073520D01*
X+2125094Y+3062899D01*
X+2130814Y+3054333D01*
X+2139379Y+3048614D01*
X+2150000Y+3046532D01*
X+2176988Y+3073520D02*
X+2174906Y+3062899D01*
X+2169186Y+3054333D01*
X+2160621Y+3048614D01*
X+2150000Y+3046532D01*
X+2176988Y+3073520D02*
X+2257950Y+3073520D01*
X+2118250Y+2626480D02*
X+2181750Y+2626480D01*
X+2042050Y+3040500D02*
X+2042050Y+2659500D01*
X+2257950Y+3040500D02*
X+2257950Y+2659500D01*
X+2042050Y+3040500D02*
X+2042050Y+3073520D01*
X+2257950Y+3073520D02*
X+2257950Y+3040500D01*
X+2181750Y+2626480D02*
X+2257950Y+2626480D01*
X+2257950Y+2659500D01*
X+2042050Y+2659500D02*
X+2042050Y+2626480D01*
X+2118250Y+2626480D01*
X+2087770Y+3024244D02*
X+2087735Y+3025089D01*
X+2087448Y+3026780D01*
X+2086849Y+3028471D01*
X+2085869Y+3030162D01*
X+2084369Y+3031830D01*
X+2082678Y+3033050D01*
X+2080987Y+3033826D01*
X+2079296Y+3034263D01*
X+2077610Y+3034404D01*
X+2067450Y+3024244D02*
X+2067485Y+3025089D01*
X+2067772Y+3026780D01*
X+2068371Y+3028471D01*
X+2069351Y+3030162D01*
X+2070851Y+3031830D01*
X+2072542Y+3033050D01*
X+2074233Y+3033826D01*
X+2075924Y+3034263D01*
X+2077610Y+3034404D01*
X+2067450Y+3024244D02*
X+2067485Y+3023399D01*
X+2067772Y+3021708D01*
X+2068371Y+3020017D01*
X+2069351Y+3018326D01*
X+2070851Y+3016658D01*
X+2072542Y+3015438D01*
X+2074233Y+3014662D01*
X+2075924Y+3014225D01*
X+2077610Y+3014084D01*
X+2087770Y+3024244D02*
X+2087735Y+3023399D01*
X+2087448Y+3021708D01*
X+2086849Y+3020017D01*
X+2085869Y+3018326D01*
X+2084369Y+3016658D01*
X+2082678Y+3015438D01*
X+2080987Y+3014662D01*
X+2079296Y+3014225D01*
X+2077610Y+3014084D01*
X+2023000Y+3391020D02*
X+2023000Y+3314820D01*
X+2038875Y+3299580D01*
X+2102375Y+3299580D01*
X+2118250Y+3314820D01*
X+2118250Y+3391020D01*
X+2165875Y+3375780D02*
X+2181750Y+3391020D01*
X+2229375Y+3391020D01*
X+2245250Y+3375780D01*
X+2245250Y+3360540D01*
X+2229375Y+3345300D01*
X+2245250Y+3330060D01*
X+2245250Y+3314820D01*
X+2229375Y+3299580D01*
X+2181750Y+3299580D01*
X+2165875Y+3314820D01*
X+2197625Y+3345300D02*
X+2229375Y+3345300D01*
X+3383250Y+1033320D02*
X+3367375Y+1018080D01*
X+3319750Y+1018080D01*
X+3288000Y+1048560D01*
X+3288000Y+1079040D01*
X+3319750Y+1109520D01*
X+3367375Y+1109520D01*
X+3383250Y+1094280D01*
X+3446750Y+1063800D02*
X+3430875Y+1079040D01*
X+3430875Y+1094280D01*
X+3446750Y+1109520D01*
X+3494375Y+1109520D01*
X+3510250Y+1094280D01*
X+3510250Y+1079040D01*
X+3494375Y+1063800D01*
X+3446750Y+1063800D01*
X+3430875Y+1048560D01*
X+3430875Y+1033320D01*
X+3446750Y+1018080D01*
X+3494375Y+1018080D01*
X+3510250Y+1033320D01*
X+3510250Y+1048560D01*
X+3494375Y+1063800D01*
X+5467000Y+880000D02*
X+5466573Y+890409D01*
X+5463101Y+911228D01*
X+5455845Y+932047D01*
X+5444017Y+952866D01*
X+5425920Y+973524D01*
X+5405101Y+989045D01*
X+5384282Y+999030D01*
X+5363463Y+1004814D01*
X+5342644Y+1006972D01*
X+5340000Y+1007000D01*
X+5213000Y+880000D02*
X+5213427Y+890409D01*
X+5216899Y+911228D01*
X+5224155Y+932047D01*
X+5235983Y+952866D01*
X+5254080Y+973524D01*
X+5274899Y+989045D01*
X+5295718Y+999030D01*
X+5316537Y+1004814D01*
X+5337356Y+1006972D01*
X+5340000Y+1007000D01*
X+5213000Y+880000D02*
X+5213427Y+869591D01*
X+5216899Y+848772D01*
X+5224155Y+827953D01*
X+5235983Y+807134D01*
X+5254080Y+786476D01*
X+5274899Y+770955D01*
X+5295718Y+760970D01*
X+5316537Y+755186D01*
X+5337356Y+753028D01*
X+5340000Y+753000D01*
X+5467000Y+880000D02*
X+5466573Y+869591D01*
X+5463101Y+848772D01*
X+5455845Y+827953D01*
X+5444017Y+807134D01*
X+5425920Y+786476D01*
X+5405101Y+770955D01*
X+5384282Y+760970D01*
X+5363463Y+755186D01*
X+5342644Y+753028D01*
X+5340000Y+753000D01*
X+5403500Y+880000D02*
X+5403283Y+885247D01*
X+5401518Y+895742D01*
X+5397826Y+906237D01*
X+5391798Y+916732D01*
X+5382576Y+927112D01*
X+5372081Y+934800D01*
X+5361586Y+939718D01*
X+5351091Y+942524D01*
X+5340596Y+943497D01*
X+5340000Y+943500D01*
X+5276500Y+880000D02*
X+5276717Y+885247D01*
X+5278482Y+895742D01*
X+5282174Y+906237D01*
X+5288202Y+916732D01*
X+5297424Y+927112D01*
X+5307919Y+934800D01*
X+5318414Y+939718D01*
X+5328909Y+942524D01*
X+5339404Y+943497D01*
X+5340000Y+943500D01*
X+5276500Y+880000D02*
X+5276717Y+874753D01*
X+5278482Y+864258D01*
X+5282174Y+853763D01*
X+5288202Y+843268D01*
X+5297424Y+832888D01*
X+5307919Y+825200D01*
X+5318414Y+820282D01*
X+5328909Y+817476D01*
X+5339404Y+816503D01*
X+5340000Y+816500D01*
X+5403500Y+880000D02*
X+5403283Y+874753D01*
X+5401518Y+864258D01*
X+5397826Y+853763D01*
X+5391798Y+843268D01*
X+5382576Y+832888D01*
X+5372081Y+825200D01*
X+5361586Y+820282D01*
X+5351091Y+817476D01*
X+5340596Y+816503D01*
X+5340000Y+816500D01*
X+5149500Y+1078120D02*
X+5149500Y+1062880D01*
X+5165375Y+1047640D01*
X+5228875Y+1047640D01*
X+5244750Y+1062880D01*
X+5244750Y+1139080D01*
X+5308250Y+1108600D02*
X+5340000Y+1139080D01*
X+5340000Y+1047640D01*
X+5498750Y+1139080D02*
X+5419375Y+1139080D01*
X+5419375Y+1108600D01*
X+5482875Y+1108600D01*
X+5498750Y+1093360D01*
X+5498750Y+1062880D01*
X+5482875Y+1047640D01*
X+5435250Y+1047640D01*
X+5419375Y+1062880D01*
X+5467000Y+430000D02*
X+5466573Y+440409D01*
X+5463101Y+461228D01*
X+5455845Y+482047D01*
X+5444017Y+502866D01*
X+5425920Y+523524D01*
X+5405101Y+539045D01*
X+5384282Y+549030D01*
X+5363463Y+554814D01*
X+5342644Y+556972D01*
X+5340000Y+557000D01*
X+5213000Y+430000D02*
X+5213427Y+440409D01*
X+5216899Y+461228D01*
X+5224155Y+482047D01*
X+5235983Y+502866D01*
X+5254080Y+523524D01*
X+5274899Y+539045D01*
X+5295718Y+549030D01*
X+5316537Y+554814D01*
X+5337356Y+556972D01*
X+5340000Y+557000D01*
X+5213000Y+430000D02*
X+5213427Y+419591D01*
X+5216899Y+398772D01*
X+5224155Y+377953D01*
X+5235983Y+357134D01*
X+5254080Y+336476D01*
X+5274899Y+320955D01*
X+5295718Y+310970D01*
X+5316537Y+305186D01*
X+5337356Y+303028D01*
X+5340000Y+303000D01*
X+5467000Y+430000D02*
X+5466573Y+419591D01*
X+5463101Y+398772D01*
X+5455845Y+377953D01*
X+5444017Y+357134D01*
X+5425920Y+336476D01*
X+5405101Y+320955D01*
X+5384282Y+310970D01*
X+5363463Y+305186D01*
X+5342644Y+303028D01*
X+5340000Y+303000D01*
X+5403500Y+430000D02*
X+5403283Y+435247D01*
X+5401518Y+445742D01*
X+5397826Y+456237D01*
X+5391798Y+466732D01*
X+5382576Y+477112D01*
X+5372081Y+484800D01*
X+5361586Y+489718D01*
X+5351091Y+492524D01*
X+5340596Y+493497D01*
X+5340000Y+493500D01*
X+5276500Y+430000D02*
X+5276717Y+435247D01*
X+5278482Y+445742D01*
X+5282174Y+456237D01*
X+5288202Y+466732D01*
X+5297424Y+477112D01*
X+5307919Y+484800D01*
X+5318414Y+489718D01*
X+5328909Y+492524D01*
X+5339404Y+493497D01*
X+5340000Y+493500D01*
X+5276500Y+430000D02*
X+5276717Y+424753D01*
X+5278482Y+414258D01*
X+5282174Y+403763D01*
X+5288202Y+393268D01*
X+5297424Y+382888D01*
X+5307919Y+375200D01*
X+5318414Y+370282D01*
X+5328909Y+367476D01*
X+5339404Y+366503D01*
X+5340000Y+366500D01*
X+5403500Y+430000D02*
X+5403283Y+424753D01*
X+5401518Y+414258D01*
X+5397826Y+403763D01*
X+5391798Y+393268D01*
X+5382576Y+382888D01*
X+5372081Y+375200D01*
X+5361586Y+370282D01*
X+5351091Y+367476D01*
X+5340596Y+366503D01*
X+5340000Y+366500D01*
X+5149500Y+628120D02*
X+5149500Y+612880D01*
X+5165375Y+597640D01*
X+5228875Y+597640D01*
X+5244750Y+612880D01*
X+5244750Y+689080D01*
X+5308250Y+658600D02*
X+5340000Y+689080D01*
X+5340000Y+597640D01*
X+5419375Y+689080D02*
X+5498750Y+689080D01*
X+5498750Y+673840D01*
X+5419375Y+597640D01*
X+5597000Y+3050000D02*
X+5596573Y+3060409D01*
X+5593101Y+3081228D01*
X+5585845Y+3102047D01*
X+5574017Y+3122866D01*
X+5555920Y+3143524D01*
X+5535101Y+3159045D01*
X+5514282Y+3169030D01*
X+5493463Y+3174814D01*
X+5472644Y+3176972D01*
X+5470000Y+3177000D01*
X+5343000Y+3050000D02*
X+5343427Y+3060409D01*
X+5346899Y+3081228D01*
X+5354155Y+3102047D01*
X+5365983Y+3122866D01*
X+5384080Y+3143524D01*
X+5404899Y+3159045D01*
X+5425718Y+3169030D01*
X+5446537Y+3174814D01*
X+5467356Y+3176972D01*
X+5470000Y+3177000D01*
X+5343000Y+3050000D02*
X+5343427Y+3039591D01*
X+5346899Y+3018772D01*
X+5354155Y+2997953D01*
X+5365983Y+2977134D01*
X+5384080Y+2956476D01*
X+5404899Y+2940955D01*
X+5425718Y+2930970D01*
X+5446537Y+2925186D01*
X+5467356Y+2923028D01*
X+5470000Y+2923000D01*
X+5597000Y+3050000D02*
X+5596573Y+3039591D01*
X+5593101Y+3018772D01*
X+5585845Y+2997953D01*
X+5574017Y+2977134D01*
X+5555920Y+2956476D01*
X+5535101Y+2940955D01*
X+5514282Y+2930970D01*
X+5493463Y+2925186D01*
X+5472644Y+2923028D01*
X+5470000Y+2923000D01*
X+5533500Y+3050000D02*
X+5533283Y+3055247D01*
X+5531518Y+3065742D01*
X+5527826Y+3076237D01*
X+5521798Y+3086732D01*
X+5512576Y+3097112D01*
X+5502081Y+3104800D01*
X+5491586Y+3109718D01*
X+5481091Y+3112524D01*
X+5470596Y+3113497D01*
X+5470000Y+3113500D01*
X+5406500Y+3050000D02*
X+5406717Y+3055247D01*
X+5408482Y+3065742D01*
X+5412174Y+3076237D01*
X+5418202Y+3086732D01*
X+5427424Y+3097112D01*
X+5437919Y+3104800D01*
X+5448414Y+3109718D01*
X+5458909Y+3112524D01*
X+5469404Y+3113497D01*
X+5470000Y+3113500D01*
X+5406500Y+3050000D02*
X+5406717Y+3044753D01*
X+5408482Y+3034258D01*
X+5412174Y+3023763D01*
X+5418202Y+3013268D01*
X+5427424Y+3002888D01*
X+5437919Y+2995200D01*
X+5448414Y+2990282D01*
X+5458909Y+2987476D01*
X+5469404Y+2986503D01*
X+5470000Y+2986500D01*
X+5533500Y+3050000D02*
X+5533283Y+3044753D01*
X+5531518Y+3034258D01*
X+5527826Y+3023763D01*
X+5521798Y+3013268D01*
X+5512576Y+3002888D01*
X+5502081Y+2995200D01*
X+5491586Y+2990282D01*
X+5481091Y+2987476D01*
X+5470596Y+2986503D01*
X+5470000Y+2986500D01*
X+5279500Y+3248120D02*
X+5279500Y+3232880D01*
X+5295375Y+3217640D01*
X+5358875Y+3217640D01*
X+5374750Y+3232880D01*
X+5374750Y+3309080D01*
X+5438250Y+3278600D02*
X+5470000Y+3309080D01*
X+5470000Y+3217640D01*
X+5565250Y+3263360D02*
X+5549375Y+3278600D01*
X+5549375Y+3293840D01*
X+5565250Y+3309080D01*
X+5612875Y+3309080D01*
X+5628750Y+3293840D01*
X+5628750Y+3278600D01*
X+5612875Y+3263360D01*
X+5565250Y+3263360D01*
X+5549375Y+3248120D01*
X+5549375Y+3232880D01*
X+5565250Y+3217640D01*
X+5612875Y+3217640D01*
X+5628750Y+3232880D01*
X+5628750Y+3248120D01*
X+5612875Y+3263360D01*
X+1257000Y+2080000D02*
X+1256573Y+2090409D01*
X+1253101Y+2111228D01*
X+1245845Y+2132047D01*
X+1234017Y+2152866D01*
X+1215920Y+2173524D01*
X+1195101Y+2189045D01*
X+1174282Y+2199030D01*
X+1153463Y+2204814D01*
X+1132644Y+2206972D01*
X+1130000Y+2207000D01*
X+1003000Y+2080000D02*
X+1003427Y+2090409D01*
X+1006899Y+2111228D01*
X+1014155Y+2132047D01*
X+1025983Y+2152866D01*
X+1044080Y+2173524D01*
X+1064899Y+2189045D01*
X+1085718Y+2199030D01*
X+1106537Y+2204814D01*
X+1127356Y+2206972D01*
X+1130000Y+2207000D01*
X+1003000Y+2080000D02*
X+1003427Y+2069591D01*
X+1006899Y+2048772D01*
X+1014155Y+2027953D01*
X+1025983Y+2007134D01*
X+1044080Y+1986476D01*
X+1064899Y+1970955D01*
X+1085718Y+1960970D01*
X+1106537Y+1955186D01*
X+1127356Y+1953028D01*
X+1130000Y+1953000D01*
X+1257000Y+2080000D02*
X+1256573Y+2069591D01*
X+1253101Y+2048772D01*
X+1245845Y+2027953D01*
X+1234017Y+2007134D01*
X+1215920Y+1986476D01*
X+1195101Y+1970955D01*
X+1174282Y+1960970D01*
X+1153463Y+1955186D01*
X+1132644Y+1953028D01*
X+1130000Y+1953000D01*
X+1193500Y+2080000D02*
X+1193283Y+2085247D01*
X+1191518Y+2095742D01*
X+1187826Y+2106237D01*
X+1181798Y+2116732D01*
X+1172576Y+2127112D01*
X+1162081Y+2134800D01*
X+1151586Y+2139718D01*
X+1141091Y+2142524D01*
X+1130596Y+2143497D01*
X+1130000Y+2143500D01*
X+1066500Y+2080000D02*
X+1066717Y+2085247D01*
X+1068482Y+2095742D01*
X+1072174Y+2106237D01*
X+1078202Y+2116732D01*
X+1087424Y+2127112D01*
X+1097919Y+2134800D01*
X+1108414Y+2139718D01*
X+1118909Y+2142524D01*
X+1129404Y+2143497D01*
X+1130000Y+2143500D01*
X+1066500Y+2080000D02*
X+1066717Y+2074753D01*
X+1068482Y+2064258D01*
X+1072174Y+2053763D01*
X+1078202Y+2043268D01*
X+1087424Y+2032888D01*
X+1097919Y+2025200D01*
X+1108414Y+2020282D01*
X+1118909Y+2017476D01*
X+1129404Y+2016503D01*
X+1130000Y+2016500D01*
X+1193500Y+2080000D02*
X+1193283Y+2074753D01*
X+1191518Y+2064258D01*
X+1187826Y+2053763D01*
X+1181798Y+2043268D01*
X+1172576Y+2032888D01*
X+1162081Y+2025200D01*
X+1151586Y+2020282D01*
X+1141091Y+2017476D01*
X+1130596Y+2016503D01*
X+1130000Y+2016500D01*
X+939500Y+2278120D02*
X+939500Y+2262880D01*
X+955375Y+2247640D01*
X+1018875Y+2247640D01*
X+1034750Y+2262880D01*
X+1034750Y+2339080D01*
X+1098250Y+2308600D02*
X+1130000Y+2339080D01*
X+1130000Y+2247640D01*
X+1288750Y+2323840D02*
X+1272875Y+2339080D01*
X+1225250Y+2339080D01*
X+1209375Y+2323840D01*
X+1209375Y+2262880D01*
X+1225250Y+2247640D01*
X+1272875Y+2247640D01*
X+1288750Y+2262880D01*
X+1288750Y+2278120D01*
X+1272875Y+2293360D01*
X+1209375Y+2293360D01*
X+3850000Y+70000D02*
X+3849897Y+72489D01*
X+3849055Y+77469D01*
X+3847295Y+82449D01*
X+3844418Y+87429D01*
X+3840017Y+92345D01*
X+3835037Y+95959D01*
X+3830057Y+98264D01*
X+3825077Y+99567D01*
X+3820097Y+100000D01*
X+3820000Y+100000D01*
X+3790000Y+70000D02*
X+3790103Y+72489D01*
X+3790945Y+77469D01*
X+3792705Y+82449D01*
X+3795582Y+87429D01*
X+3799983Y+92345D01*
X+3804963Y+95959D01*
X+3809943Y+98264D01*
X+3814923Y+99567D01*
X+3819903Y+100000D01*
X+3820000Y+100000D01*
X+3790000Y+70000D02*
X+3790103Y+67511D01*
X+3790945Y+62531D01*
X+3792705Y+57551D01*
X+3795582Y+52571D01*
X+3799983Y+47655D01*
X+3804963Y+44041D01*
X+3809943Y+41736D01*
X+3814923Y+40433D01*
X+3819903Y+40000D01*
X+3820000Y+40000D01*
X+3850000Y+70000D02*
X+3849897Y+67511D01*
X+3849055Y+62531D01*
X+3847295Y+57551D01*
X+3844418Y+52571D01*
X+3840017Y+47655D01*
X+3835037Y+44041D01*
X+3830057Y+41736D01*
X+3825077Y+40433D01*
X+3820097Y+40000D01*
X+3820000Y+40000D01*
X+4780000Y+140000D02*
X+4779897Y+142489D01*
X+4779055Y+147469D01*
X+4777295Y+152449D01*
X+4774418Y+157429D01*
X+4770017Y+162345D01*
X+4765037Y+165959D01*
X+4760057Y+168264D01*
X+4755077Y+169567D01*
X+4750097Y+170000D01*
X+4750000Y+170000D01*
X+4720000Y+140000D02*
X+4720103Y+142489D01*
X+4720945Y+147469D01*
X+4722705Y+152449D01*
X+4725582Y+157429D01*
X+4729983Y+162345D01*
X+4734963Y+165959D01*
X+4739943Y+168264D01*
X+4744923Y+169567D01*
X+4749903Y+170000D01*
X+4750000Y+170000D01*
X+4720000Y+140000D02*
X+4720103Y+137511D01*
X+4720945Y+132531D01*
X+4722705Y+127551D01*
X+4725582Y+122571D01*
X+4729983Y+117655D01*
X+4734963Y+114041D01*
X+4739943Y+111736D01*
X+4744923Y+110433D01*
X+4749903Y+110000D01*
X+4750000Y+110000D01*
X+4780000Y+140000D02*
X+4779897Y+137511D01*
X+4779055Y+132531D01*
X+4777295Y+127551D01*
X+4774418Y+122571D01*
X+4770017Y+117655D01*
X+4765037Y+114041D01*
X+4760057Y+111736D01*
X+4755077Y+110433D01*
X+4750097Y+110000D01*
X+4750000Y+110000D01*
X+5650000Y+140000D02*
X+5649897Y+142489D01*
X+5649055Y+147469D01*
X+5647295Y+152449D01*
X+5644418Y+157429D01*
X+5640017Y+162345D01*
X+5635037Y+165959D01*
X+5630057Y+168264D01*
X+5625077Y+169567D01*
X+5620097Y+170000D01*
X+5620000Y+170000D01*
X+5590000Y+140000D02*
X+5590103Y+142489D01*
X+5590945Y+147469D01*
X+5592705Y+152449D01*
X+5595582Y+157429D01*
X+5599983Y+162345D01*
X+5604963Y+165959D01*
X+5609943Y+168264D01*
X+5614923Y+169567D01*
X+5619903Y+170000D01*
X+5620000Y+170000D01*
X+5590000Y+140000D02*
X+5590103Y+137511D01*
X+5590945Y+132531D01*
X+5592705Y+127551D01*
X+5595582Y+122571D01*
X+5599983Y+117655D01*
X+5604963Y+114041D01*
X+5609943Y+111736D01*
X+5614923Y+110433D01*
X+5619903Y+110000D01*
X+5620000Y+110000D01*
X+5650000Y+140000D02*
X+5649897Y+137511D01*
X+5649055Y+132531D01*
X+5647295Y+127551D01*
X+5644418Y+122571D01*
X+5640017Y+117655D01*
X+5635037Y+114041D01*
X+5630057Y+111736D01*
X+5625077Y+110433D01*
X+5620097Y+110000D01*
X+5620000Y+110000D01*
X+4850000Y+2920000D02*
X+4849897Y+2922489D01*
X+4849055Y+2927469D01*
X+4847295Y+2932449D01*
X+4844418Y+2937429D01*
X+4840017Y+2942345D01*
X+4835037Y+2945959D01*
X+4830057Y+2948264D01*
X+4825077Y+2949567D01*
X+4820097Y+2950000D01*
X+4820000Y+2950000D01*
X+4790000Y+2920000D02*
X+4790103Y+2922489D01*
X+4790945Y+2927469D01*
X+4792705Y+2932449D01*
X+4795582Y+2937429D01*
X+4799983Y+2942345D01*
X+4804963Y+2945959D01*
X+4809943Y+2948264D01*
X+4814923Y+2949567D01*
X+4819903Y+2950000D01*
X+4820000Y+2950000D01*
X+4790000Y+2920000D02*
X+4790103Y+2917511D01*
X+4790945Y+2912531D01*
X+4792705Y+2907551D01*
X+4795582Y+2902571D01*
X+4799983Y+2897655D01*
X+4804963Y+2894041D01*
X+4809943Y+2891736D01*
X+4814923Y+2890433D01*
X+4819903Y+2890000D01*
X+4820000Y+2890000D01*
X+4850000Y+2920000D02*
X+4849897Y+2917511D01*
X+4849055Y+2912531D01*
X+4847295Y+2907551D01*
X+4844418Y+2902571D01*
X+4840017Y+2897655D01*
X+4835037Y+2894041D01*
X+4830057Y+2891736D01*
X+4825077Y+2890433D01*
X+4820097Y+2890000D01*
X+4820000Y+2890000D01*
X+1240600Y+5050000D02*
X+1367600Y+5050000D01*
X+1621600Y+5050000D02*
X+1774000Y+5050000D01*
X+1697800Y+5100800D02*
X+1697800Y+4999200D01*
X+5220600Y+5030000D02*
X+5347600Y+5030000D01*
X+5601600Y+5030000D02*
X+5754000Y+5030000D01*
X+5677800Y+5080800D02*
X+5677800Y+4979200D01*
M02*
