G04 PROTEUS GERBER X2 FILE*
%TF.GenerationSoftware,Labcenter,Proteus,8.12-SP2-Build31155*%
%TF.CreationDate,2024-11-30T19:26:21+00:00*%
%TF.FileFunction,AssemblyDrawing,Top*%
%TF.FilePolarity,Positive*%
%TF.Part,Single*%
%TF.SameCoordinates,{e6e8286e-83a0-46e7-8d5c-4e76f455a4ca}*%
%FSLAX45Y45*%
%MOMM*%
G01*
%TA.AperFunction,Profile*%
%ADD22C,0.203200*%
%TA.AperFunction,Material*%
%ADD25C,0.203200*%
%ADD46C,0.812800*%
%ADD47C,0.177800*%
%ADD48C,0.330200*%
%ADD49C,0.220130*%
%ADD50C,0.211660*%
%ADD51C,0.050800*%
%ADD52C,1.143000*%
%ADD53C,0.269070*%
%ADD54C,0.571500*%
%ADD55C,0.300520*%
%ADD56C,0.234520*%
%ADD57C,0.050000*%
%ADD58C,0.243840*%
%ADD59C,0.034990*%
%ADD60C,0.084660*%
%TD.AperFunction*%
D22*
X+0Y+0D02*
X+1650000Y+0D01*
X+7000000Y+0D02*
X+7000000Y+6000000D01*
X+5000000Y+6000000D01*
X+5000000Y+3700000D01*
X+4800000Y+3500000D01*
X+2200000Y+3500000D01*
X+2000000Y+3700000D02*
X+2000000Y+6000000D01*
X+0Y+6000000D01*
X+0Y+0D01*
X+2000000Y+3700000D02*
X+2200000Y+3500000D01*
X+5160000Y+0D02*
X+7000000Y+0D01*
X+1750000Y-200000D02*
X+5050000Y-200000D01*
X+1650000Y+0D02*
X+1750000Y-200000D01*
X+5160000Y+0D02*
X+5050000Y-200000D01*
X+4550045Y+50000D02*
X+4549508Y+63142D01*
X+4545144Y+89427D01*
X+4536029Y+115712D01*
X+4521182Y+141997D01*
X+4498470Y+168118D01*
X+4472185Y+187898D01*
X+4445900Y+200658D01*
X+4419615Y+208108D01*
X+4393330Y+210987D01*
X+4389000Y+211045D01*
X+4227955Y+50000D02*
X+4228492Y+63142D01*
X+4232856Y+89427D01*
X+4241971Y+115712D01*
X+4256818Y+141997D01*
X+4279530Y+168118D01*
X+4305815Y+187898D01*
X+4332100Y+200658D01*
X+4358385Y+208108D01*
X+4384670Y+210987D01*
X+4389000Y+211045D01*
X+4227955Y+50000D02*
X+4228492Y+36858D01*
X+4232856Y+10573D01*
X+4241971Y-15712D01*
X+4256818Y-41997D01*
X+4279530Y-68118D01*
X+4305815Y-87898D01*
X+4332100Y-100658D01*
X+4358385Y-108108D01*
X+4384670Y-110987D01*
X+4389000Y-111045D01*
X+4550045Y+50000D02*
X+4549508Y+36858D01*
X+4545144Y+10573D01*
X+4536029Y-15712D01*
X+4521182Y-41997D01*
X+4498470Y-68118D01*
X+4472185Y-87898D01*
X+4445900Y-100658D01*
X+4419615Y-108108D01*
X+4393330Y-110987D01*
X+4389000Y-111045D01*
X+6074045Y+5130000D02*
X+6073508Y+5143142D01*
X+6069144Y+5169427D01*
X+6060029Y+5195712D01*
X+6045182Y+5221997D01*
X+6022470Y+5248118D01*
X+5996185Y+5267898D01*
X+5969900Y+5280658D01*
X+5943615Y+5288108D01*
X+5917330Y+5290987D01*
X+5913000Y+5291045D01*
X+5751955Y+5130000D02*
X+5752492Y+5143142D01*
X+5756856Y+5169427D01*
X+5765971Y+5195712D01*
X+5780818Y+5221997D01*
X+5803530Y+5248118D01*
X+5829815Y+5267898D01*
X+5856100Y+5280658D01*
X+5882385Y+5288108D01*
X+5908670Y+5290987D01*
X+5913000Y+5291045D01*
X+5751955Y+5130000D02*
X+5752492Y+5116858D01*
X+5756856Y+5090573D01*
X+5765971Y+5064288D01*
X+5780818Y+5038003D01*
X+5803530Y+5011882D01*
X+5829815Y+4992102D01*
X+5856100Y+4979342D01*
X+5882385Y+4971892D01*
X+5908670Y+4969013D01*
X+5913000Y+4968955D01*
X+6074045Y+5130000D02*
X+6073508Y+5116858D01*
X+6069144Y+5090573D01*
X+6060029Y+5064288D01*
X+6045182Y+5038003D01*
X+6022470Y+5011882D01*
X+5996185Y+4992102D01*
X+5969900Y+4979342D01*
X+5943615Y+4971892D01*
X+5917330Y+4969013D01*
X+5913000Y+4968955D01*
X+1248045Y+5257000D02*
X+1247508Y+5270142D01*
X+1243144Y+5296427D01*
X+1234029Y+5322712D01*
X+1219182Y+5348997D01*
X+1196470Y+5375118D01*
X+1170185Y+5394898D01*
X+1143900Y+5407658D01*
X+1117615Y+5415108D01*
X+1091330Y+5417987D01*
X+1087000Y+5418045D01*
X+925955Y+5257000D02*
X+926492Y+5270142D01*
X+930856Y+5296427D01*
X+939971Y+5322712D01*
X+954818Y+5348997D01*
X+977530Y+5375118D01*
X+1003815Y+5394898D01*
X+1030100Y+5407658D01*
X+1056385Y+5415108D01*
X+1082670Y+5417987D01*
X+1087000Y+5418045D01*
X+925955Y+5257000D02*
X+926492Y+5243858D01*
X+930856Y+5217573D01*
X+939971Y+5191288D01*
X+954818Y+5165003D01*
X+977530Y+5138882D01*
X+1003815Y+5119102D01*
X+1030100Y+5106342D01*
X+1056385Y+5098892D01*
X+1082670Y+5096013D01*
X+1087000Y+5095955D01*
X+1248045Y+5257000D02*
X+1247508Y+5243858D01*
X+1243144Y+5217573D01*
X+1234029Y+5191288D01*
X+1219182Y+5165003D01*
X+1196470Y+5138882D01*
X+1170185Y+5119102D01*
X+1143900Y+5106342D01*
X+1117615Y+5098892D01*
X+1091330Y+5096013D01*
X+1087000Y+5095955D01*
D25*
X+1296840Y+122840D02*
X+3857160Y+122840D01*
X+3857160Y+397160D01*
X+1296840Y+397160D01*
X+1296840Y+122840D01*
D46*
X+3720000Y+260000D02*
X+3720000Y+260000D01*
D47*
X+2248070Y+242220D02*
X+2248070Y+224440D01*
X+2268072Y+206660D01*
X+2348082Y+206660D01*
X+2368085Y+224440D01*
X+2368085Y+313340D01*
X+2448095Y+277780D02*
X+2488100Y+313340D01*
X+2488100Y+206660D01*
X+2688125Y+242220D02*
X+2568110Y+242220D01*
X+2648120Y+313340D01*
X+2648120Y+206660D01*
D25*
X+1091840Y+3546840D02*
X+1874160Y+3546840D01*
X+1874160Y+4964160D01*
X+1091840Y+4964160D01*
X+1091840Y+3546840D01*
D46*
X+1610000Y+4700000D02*
X+1610000Y+4700000D01*
D48*
X+1516020Y+3805920D02*
X+1549040Y+3805920D01*
X+1582060Y+3843067D01*
X+1582060Y+3991657D01*
X+1549040Y+4028805D01*
X+1383940Y+4028805D01*
X+1449980Y+4177395D02*
X+1383940Y+4251690D01*
X+1582060Y+4251690D01*
D25*
X+2605340Y+2538640D02*
X+3641660Y+2538640D01*
X+3641660Y+3193960D01*
X+2605340Y+3193960D01*
X+2605340Y+2538640D01*
D46*
X+2869500Y+2802800D02*
X+2869500Y+2802800D01*
D49*
X+3077781Y+2844287D02*
X+3077781Y+2822273D01*
X+3102545Y+2800260D01*
X+3201605Y+2800260D01*
X+3226370Y+2822273D01*
X+3226370Y+2932340D01*
X+3424489Y+2910327D02*
X+3399724Y+2932340D01*
X+3325429Y+2932340D01*
X+3300664Y+2910327D01*
X+3300664Y+2822273D01*
X+3325429Y+2800260D01*
X+3399724Y+2800260D01*
X+3424489Y+2822273D01*
X+3424489Y+2844287D01*
X+3399724Y+2866300D01*
X+3300664Y+2866300D01*
D25*
X+905840Y+2455840D02*
X+1561160Y+2455840D01*
X+1561160Y+3238160D01*
X+905840Y+3238160D01*
X+905840Y+2455840D01*
D46*
X+1170000Y+2974000D02*
X+1170000Y+2974000D01*
D50*
X+1043001Y+2673433D02*
X+1043001Y+2652266D01*
X+1066813Y+2631100D01*
X+1162062Y+2631100D01*
X+1185875Y+2652266D01*
X+1185875Y+2758099D01*
X+1376374Y+2715766D02*
X+1352561Y+2694600D01*
X+1281124Y+2694600D01*
X+1257312Y+2715766D01*
X+1257312Y+2736933D01*
X+1281124Y+2758099D01*
X+1352561Y+2758099D01*
X+1376374Y+2736933D01*
X+1376374Y+2652266D01*
X+1352561Y+2631100D01*
X+1281124Y+2631100D01*
D25*
X+3821340Y+2970040D02*
X+4857660Y+2970040D01*
X+4857660Y+3244360D01*
X+3821340Y+3244360D01*
X+3821340Y+2970040D01*
D46*
X+4720500Y+3107200D02*
X+4720500Y+3107200D01*
D47*
X+4010570Y+3089420D02*
X+4010570Y+3071640D01*
X+4030572Y+3053860D01*
X+4110582Y+3053860D01*
X+4130585Y+3071640D01*
X+4130585Y+3160540D01*
X+4210595Y+3124980D02*
X+4250600Y+3160540D01*
X+4250600Y+3053860D01*
X+4370615Y+3124980D02*
X+4410620Y+3160540D01*
X+4410620Y+3053860D01*
D25*
X+4911840Y+2085840D02*
X+5948160Y+2085840D01*
X+5948160Y+2741160D01*
X+4911840Y+2741160D01*
X+4911840Y+2085840D01*
D46*
X+5176000Y+2350000D02*
X+5176000Y+2350000D01*
D49*
X+5285222Y+2391487D02*
X+5285222Y+2369473D01*
X+5309986Y+2347460D01*
X+5409046Y+2347460D01*
X+5433811Y+2369473D01*
X+5433811Y+2479540D01*
X+5532870Y+2435513D02*
X+5582400Y+2479540D01*
X+5582400Y+2347460D01*
X+5681460Y+2369473D02*
X+5681460Y+2457527D01*
X+5706224Y+2479540D01*
X+5805284Y+2479540D01*
X+5830049Y+2457527D01*
X+5830049Y+2369473D01*
X+5805284Y+2347460D01*
X+5706224Y+2347460D01*
X+5681460Y+2369473D01*
X+5681460Y+2347460D02*
X+5830049Y+2479540D01*
D25*
X+5672840Y+104840D02*
X+5947160Y+104840D01*
X+5947160Y+1141160D01*
X+5672840Y+1141160D01*
X+5672840Y+104840D01*
D46*
X+5810000Y+242000D02*
X+5810000Y+242000D01*
D47*
X+5827780Y+551880D02*
X+5845560Y+551880D01*
X+5863340Y+571882D01*
X+5863340Y+651892D01*
X+5845560Y+671895D01*
X+5756660Y+671895D01*
X+5810000Y+751905D02*
X+5792220Y+731902D01*
X+5774440Y+731902D01*
X+5756660Y+751905D01*
X+5756660Y+811912D01*
X+5774440Y+831915D01*
X+5792220Y+831915D01*
X+5810000Y+811912D01*
X+5810000Y+751905D01*
X+5827780Y+731902D01*
X+5845560Y+731902D01*
X+5863340Y+751905D01*
X+5863340Y+811912D01*
X+5845560Y+831915D01*
X+5827780Y+831915D01*
X+5810000Y+811912D01*
D25*
X+3791840Y+515840D02*
X+4574160Y+515840D01*
X+4574160Y+1171160D01*
X+3791840Y+1171160D01*
X+3791840Y+515840D01*
D46*
X+4056000Y+780000D02*
X+4056000Y+780000D01*
D50*
X+4356567Y+653001D02*
X+4377734Y+653001D01*
X+4398900Y+676813D01*
X+4398900Y+772062D01*
X+4377734Y+795875D01*
X+4271901Y+795875D01*
X+4293067Y+867312D02*
X+4271901Y+891124D01*
X+4271901Y+962561D01*
X+4293067Y+986374D01*
X+4314234Y+986374D01*
X+4335400Y+962561D01*
X+4335400Y+891124D01*
X+4356567Y+867312D01*
X+4398900Y+867312D01*
X+4398900Y+986374D01*
D25*
X+4802840Y+102840D02*
X+5077160Y+102840D01*
X+5077160Y+1139160D01*
X+4802840Y+1139160D01*
X+4802840Y+102840D01*
D46*
X+4940000Y+240000D02*
X+4940000Y+240000D01*
D47*
X+4957780Y+469870D02*
X+4975560Y+469870D01*
X+4993340Y+489872D01*
X+4993340Y+569882D01*
X+4975560Y+589885D01*
X+4886660Y+589885D01*
X+4922220Y+669895D02*
X+4886660Y+709900D01*
X+4993340Y+709900D01*
X+4904440Y+809912D02*
X+4886660Y+829915D01*
X+4886660Y+889922D01*
X+4904440Y+909925D01*
X+4922220Y+909925D01*
X+4940000Y+889922D01*
X+4940000Y+829915D01*
X+4957780Y+809912D01*
X+4993340Y+809912D01*
X+4993340Y+909925D01*
D25*
X+5091840Y+3546840D02*
X+5874160Y+3546840D01*
X+5874160Y+4964160D01*
X+5091840Y+4964160D01*
X+5091840Y+3546840D01*
D46*
X+5610000Y+4700000D02*
X+5610000Y+4700000D01*
D48*
X+5516020Y+3657330D02*
X+5549040Y+3657330D01*
X+5582060Y+3694477D01*
X+5582060Y+3843067D01*
X+5549040Y+3880215D01*
X+5383940Y+3880215D01*
X+5449980Y+4028805D02*
X+5383940Y+4103100D01*
X+5582060Y+4103100D01*
X+5416960Y+4288837D02*
X+5383940Y+4325985D01*
X+5383940Y+4437427D01*
X+5416960Y+4474575D01*
X+5449980Y+4474575D01*
X+5483000Y+4437427D01*
X+5516020Y+4474575D01*
X+5549040Y+4474575D01*
X+5582060Y+4437427D01*
X+5582060Y+4325985D01*
X+5549040Y+4288837D01*
X+5483000Y+4363132D02*
X+5483000Y+4437427D01*
D51*
X+2952800Y+1247200D02*
X+3867200Y+1247200D01*
X+3867200Y+2237800D01*
X+2952800Y+2237800D01*
X+2952800Y+1247200D01*
D52*
X+3156000Y+1425000D02*
X+3156000Y+1425000D01*
D53*
X+3046756Y+1780524D02*
X+3046756Y+1941966D01*
X+3198107Y+1941966D01*
X+3228378Y+1915059D01*
X+3228378Y+1888152D01*
X+3198107Y+1861245D01*
X+3046756Y+1861245D01*
X+3198107Y+1861245D02*
X+3228378Y+1834338D01*
X+3228378Y+1780524D01*
X+3288919Y+1941966D02*
X+3288919Y+1861245D01*
X+3379730Y+1780524D01*
X+3470541Y+1861245D01*
X+3470541Y+1941966D01*
X+3712704Y+1834338D02*
X+3531082Y+1834338D01*
X+3652163Y+1941966D01*
X+3652163Y+1780524D01*
D25*
X+1395320Y+761200D02*
X+2624680Y+761200D01*
X+2624680Y+1878800D01*
X+1395320Y+1878800D01*
X+1395320Y+761200D01*
D54*
X+2581500Y+1777200D02*
X+2581500Y+1777200D01*
D55*
X+1703652Y+1410157D02*
X+1703652Y+1259895D01*
X+1737460Y+1229842D01*
X+1872696Y+1229842D01*
X+1906505Y+1259895D01*
X+1906505Y+1410157D01*
X+2176976Y+1289947D02*
X+1974123Y+1289947D01*
X+2109358Y+1410157D01*
X+2109358Y+1229842D01*
D25*
X+1788050Y+2616320D02*
X+2511950Y+2616320D01*
X+2511950Y+3083680D01*
X+1788050Y+3083680D01*
X+1788050Y+2616320D01*
D54*
X+1889650Y+3040500D02*
X+1889650Y+3040500D01*
D56*
X+1938927Y+2884480D02*
X+1938927Y+2767217D01*
X+1965311Y+2743765D01*
X+2070847Y+2743765D01*
X+2097231Y+2767217D01*
X+2097231Y+2884480D01*
X+2176384Y+2861028D02*
X+2202768Y+2884480D01*
X+2281920Y+2884480D01*
X+2308304Y+2861028D01*
X+2308304Y+2837575D01*
X+2281920Y+2814123D01*
X+2308304Y+2790670D01*
X+2308304Y+2767217D01*
X+2281920Y+2743765D01*
X+2202768Y+2743765D01*
X+2176384Y+2767217D01*
X+2229152Y+2814123D02*
X+2281920Y+2814123D01*
D57*
X+3505000Y+1185000D02*
X+3325000Y+1185000D01*
X+3325000Y+1095000D01*
X+3505000Y+1095000D01*
X+3505000Y+1185000D01*
X+3415000Y+1115000D02*
X+3415000Y+1165000D01*
X+3390000Y+1140000D02*
X+3440000Y+1140000D01*
D58*
X+3460000Y+1140000D02*
X+3460000Y+1140000D01*
D59*
X+3377280Y+1133000D02*
X+3373343Y+1129501D01*
X+3361532Y+1129501D01*
X+3353658Y+1136500D01*
X+3353658Y+1143499D01*
X+3361532Y+1150498D01*
X+3373343Y+1150498D01*
X+3377280Y+1146999D01*
X+3393028Y+1140000D02*
X+3389091Y+1143499D01*
X+3389091Y+1146999D01*
X+3393028Y+1150498D01*
X+3404839Y+1150498D01*
X+3408776Y+1146999D01*
X+3408776Y+1143499D01*
X+3404839Y+1140000D01*
X+3393028Y+1140000D01*
X+3389091Y+1136500D01*
X+3389091Y+1133000D01*
X+3393028Y+1129501D01*
X+3404839Y+1129501D01*
X+3408776Y+1133000D01*
X+3408776Y+1136500D01*
X+3404839Y+1140000D01*
D25*
X+5202840Y+742840D02*
X+5477160Y+742840D01*
X+5477160Y+1017160D01*
X+5202840Y+1017160D01*
X+5202840Y+742840D01*
D60*
X+5225702Y+871533D02*
X+5225702Y+863066D01*
X+5235226Y+854600D01*
X+5273326Y+854600D01*
X+5282851Y+863066D01*
X+5282851Y+905399D01*
X+5320950Y+888466D02*
X+5340000Y+905399D01*
X+5340000Y+854600D01*
X+5435249Y+905399D02*
X+5387624Y+905399D01*
X+5387624Y+888466D01*
X+5425724Y+888466D01*
X+5435249Y+880000D01*
X+5435249Y+863066D01*
X+5425724Y+854600D01*
X+5397149Y+854600D01*
X+5387624Y+863066D01*
D25*
X+5202840Y+292840D02*
X+5477160Y+292840D01*
X+5477160Y+567160D01*
X+5202840Y+567160D01*
X+5202840Y+292840D01*
D60*
X+5225702Y+421533D02*
X+5225702Y+413066D01*
X+5235226Y+404600D01*
X+5273326Y+404600D01*
X+5282851Y+413066D01*
X+5282851Y+455399D01*
X+5320950Y+438466D02*
X+5340000Y+455399D01*
X+5340000Y+404600D01*
X+5387624Y+455399D02*
X+5435249Y+455399D01*
X+5435249Y+446933D01*
X+5387624Y+404600D01*
D25*
X+5332840Y+2912840D02*
X+5607160Y+2912840D01*
X+5607160Y+3187160D01*
X+5332840Y+3187160D01*
X+5332840Y+2912840D01*
D60*
X+5355702Y+3041533D02*
X+5355702Y+3033066D01*
X+5365226Y+3024600D01*
X+5403326Y+3024600D01*
X+5412851Y+3033066D01*
X+5412851Y+3075399D01*
X+5450950Y+3058466D02*
X+5470000Y+3075399D01*
X+5470000Y+3024600D01*
X+5527149Y+3050000D02*
X+5517624Y+3058466D01*
X+5517624Y+3066933D01*
X+5527149Y+3075399D01*
X+5555724Y+3075399D01*
X+5565249Y+3066933D01*
X+5565249Y+3058466D01*
X+5555724Y+3050000D01*
X+5527149Y+3050000D01*
X+5517624Y+3041533D01*
X+5517624Y+3033066D01*
X+5527149Y+3024600D01*
X+5555724Y+3024600D01*
X+5565249Y+3033066D01*
X+5565249Y+3041533D01*
X+5555724Y+3050000D01*
D25*
X+992840Y+1942840D02*
X+1267160Y+1942840D01*
X+1267160Y+2217160D01*
X+992840Y+2217160D01*
X+992840Y+1942840D01*
D60*
X+1015702Y+2071533D02*
X+1015702Y+2063066D01*
X+1025226Y+2054600D01*
X+1063326Y+2054600D01*
X+1072851Y+2063066D01*
X+1072851Y+2105399D01*
X+1110950Y+2088466D02*
X+1130000Y+2105399D01*
X+1130000Y+2054600D01*
X+1225249Y+2096933D02*
X+1215724Y+2105399D01*
X+1187149Y+2105399D01*
X+1177624Y+2096933D01*
X+1177624Y+2063066D01*
X+1187149Y+2054600D01*
X+1215724Y+2054600D01*
X+1225249Y+2063066D01*
X+1225249Y+2071533D01*
X+1215724Y+2080000D01*
X+1177624Y+2080000D01*
M02*
